<?xml version="1.0" encoding="UTF-8"?>
<svg xmlns="http://www.w3.org/2000/svg" width="300" height="362" viewBox="0 0 630 762" fill="none">
    <path d="M251.269 696.882C251.269 696.882 238.037 716.44 252.469 732.704C266.901 748.968 251.348 757.869 251.348 757.869L192.686 699.207L222 669.9L251.269 696.882Z" fill="#367CFF"></path>
    <path d="M254.388 294.587C254.388 294.587 254.648 287.617 254.588 303.428C254.497 329.684 256.995 399.067 255.24 488.492C253.84 559.975 204.076 682.64 204.076 682.64L248.956 714.853C248.956 714.853 316.467 605.353 327.181 496.953C332.665 441.465 343.881 292.189 343.881 292.189L254.388 294.587Z" fill="#262626"></path>
    <path d="M392.877 717.545C392.877 717.545 397.35 740.731 419.059 742.023C440.768 743.315 436.059 760.61 436.059 760.61H353.1V719.162L392.877 717.545Z" fill="#367CFF"></path>
    <path d="M403.421 299.167C403.421 299.167 410.231 500.729 409.521 510.581L403.121 730.815L349.508 731.806L340.863 502.615C340.863 502.615 335.2 439.394 319.92 380.687C312.104 350.557 307.401 319.705 305.884 288.615L403.421 299.167Z" fill="#262626"></path>
    <path d="M332.694 442.074L337.164 373.708C337.164 373.708 341.756 402.13 341.756 426.628C341.756 438.602 339.29 486.012 339.29 486.012L332.694 442.074Z" fill="#0A0A0A"></path>
    <path d="M253.8 294.581L253.621 294.591C253.621 294.591 253.746 291.153 253.8 294.581Z" fill="#333333"></path>
    <path d="M254.02 294.581L253.842 294.591C253.842 294.591 253.97 291.153 254.02 294.581Z" fill="#333333"></path>
    <path d="M289.125 39.954C289.125 39.954 284.806 62.97 278.58 70.764C260.655 93.2 253.042 119.941 266.388 135.983C279.734 152.025 375.694 163.697 386.882 131.808C396.3 104.96 383.518 100.424 383.041 77.29C382.826 66.823 381.427 44.761 381.427 44.761" fill="#0A0A0A"></path>
    <path d="M366.973 119.644C366.806 119.623 364.954 150.344 329.261 147.669C304.551 145.818 295.741 119.601 295.174 119.601C297.838 119.035 302.325 118.211 303.508 117.58C307.399 115.489 312.213 113.314 313.467 105.757C314.19 101.402 312.967 79.122 313.341 74.716L351.271 83.182C350.742 92.488 347.032 114.062 360.033 117.882C362.2 118.512 364.527 119.093 366.973 119.644Z" fill="#E98862"></path>
    <path opacity="0.52" d="M351.8 109.063C351.206 107.149 350.823 105.175 350.659 103.177C350.242 98.6173 350.325 94.0256 350.907 89.484C343.199 88.4429 335.937 85.2611 329.947 80.3C329.247 82.9 325.369 94.267 326.447 96.739C328.469 101.412 338 109.063 351.8 109.063Z" fill="#0C0C0C"></path>
    <path d="M345.071 101.64C330.051 101.302 311.549 93.066 309.933 72.816L308.475 54.545C306.859 34.295 316.185 17.031 335.251 15.509C354.317 13.988 369.878 29.266 371.494 49.516L372.139 57.605C372.759 65.375 371.87 102.244 345.071 101.64Z" fill="#E98862"></path>
    <path d="M361.205 58.953C362.506 58.953 363.561 57.8982 363.561 56.597C363.561 55.2958 362.506 54.241 361.205 54.241C359.904 54.241 358.849 55.2958 358.849 56.597C358.849 57.8982 359.904 58.953 361.205 58.953Z" fill="#0C0C0C"></path>
    <path d="M339.754 58.953C341.055 58.953 342.11 57.8982 342.11 56.597C342.11 55.2958 341.055 54.241 339.754 54.241C338.453 54.241 337.398 55.2958 337.398 56.597C337.398 57.8982 338.453 58.953 339.754 58.953Z" fill="#0C0C0C"></path>
    <path opacity="0.52" d="M353.948 74.762H353.986C354.758 74.6943 355.526 74.5845 356.286 74.433C357.423 74.198 358.925 73.768 358.844 72.756C358.753 71.602 354.599 59.405 354.125 58.018C354.082 57.8993 353.994 57.8024 353.88 57.7479C353.766 57.6934 353.635 57.6857 353.515 57.7266C353.396 57.7674 353.297 57.8534 353.24 57.9662C353.183 58.079 353.173 58.2096 353.211 58.33C354.984 63.524 357.82 72.056 357.882 72.83C357.72 73.17 355.824 73.644 353.907 73.797C353.784 73.8082 353.669 73.8664 353.588 73.9596C353.506 74.0527 353.463 74.1737 353.468 74.2975C353.473 74.4214 353.525 74.5385 353.614 74.6248C353.703 74.711 353.822 74.7598 353.946 74.761L353.948 74.762Z" fill="#0C0C0C"></path>
    <path opacity="0.52" d="M350.832 79.583C347.741 79.6404 344.708 80.4231 341.975 81.868C341.916 81.8948 341.862 81.9333 341.818 81.9812C341.774 82.0292 341.74 82.0856 341.718 82.147C341.696 82.2085 341.687 82.2737 341.691 82.3388C341.695 82.4038 341.713 82.4674 341.742 82.5256C341.771 82.5839 341.812 82.6355 341.862 82.6776C341.912 82.7196 341.969 82.7511 342.032 82.7702C342.094 82.7893 342.16 82.7956 342.225 82.7887C342.289 82.7818 342.352 82.7618 342.409 82.73C348.309 79.758 353.833 79.785 358.395 82.807C358.487 82.8712 358.583 82.9303 358.681 82.984C358.795 83.0341 358.924 83.0383 359.041 82.9956C359.158 82.9529 359.254 82.8668 359.309 82.755C359.364 82.6433 359.373 82.5147 359.336 82.396C359.298 82.2773 359.216 82.1777 359.107 82.118C359.07 82.098 359.007 82.057 358.929 82.002C356.531 80.4079 353.712 79.5656 350.832 79.583Z" fill="#0C0C0C"></path>
    <path d="M292.854 59.173L309.935 57.908C323.174 54.143 329.378 32.6 329.378 32.6C329.378 32.6 343.167 49.279 381.427 44.764C381.427 44.764 379.556 -8.117 322.759 1.076C304.445 4.041 289.746 20.589 288.753 44.717C288.057 61.622 292.854 59.173 292.854 59.173Z" fill="#0A0A0A"></path>
    <path d="M311.609 78.891C305.815 79.353 300.624 73.529 300.161 67.735C299.698 61.941 304.141 58.371 309.935 57.908L313.235 61.553L316.595 78.493L311.609 78.891Z" fill="#E98862"></path>
    <path d="M358.572 48.9C360.344 48.0086 362.323 47.6106 364.301 47.748C365.275 47.8094 366.235 48.0167 367.148 48.363C368.051 48.6998 368.909 49.149 369.7 49.7C369.814 49.7707 369.894 49.8836 369.925 50.0138C369.955 50.144 369.932 50.281 369.862 50.3945C369.791 50.508 369.678 50.5888 369.548 50.6191C369.417 50.6494 369.281 50.6267 369.167 50.556L369.133 50.536C368.397 50.0693 367.604 49.6973 366.775 49.429C365.956 49.1594 365.102 49.0148 364.24 49C362.529 48.9608 360.839 49.3748 359.34 50.2L359.291 50.228C359.117 50.3277 358.91 50.3541 358.716 50.3013C358.522 50.2485 358.357 50.1209 358.258 49.9465C358.158 49.7721 358.131 49.5653 358.184 49.3714C358.237 49.1776 358.365 49.0127 358.539 48.913L358.572 48.9Z" fill="#0C0C0C"></path>
    <path d="M343.255 50.8C341.647 50.2176 339.914 50.0707 338.231 50.374C337.381 50.5216 336.558 50.7963 335.79 51.189C335.012 51.5826 334.287 52.072 333.631 52.646L333.602 52.671C333.552 52.7143 333.494 52.7474 333.431 52.7682C333.368 52.7891 333.302 52.7974 333.236 52.7926C333.17 52.7878 333.105 52.7701 333.046 52.7404C332.987 52.7107 332.934 52.6696 332.891 52.6195C332.847 52.5694 332.814 52.5113 332.793 52.4484C332.772 52.3855 332.764 52.3192 332.769 52.2531C332.774 52.187 332.791 52.1225 332.821 52.0633C332.851 52.0041 332.892 51.9513 332.942 51.908C333.639 51.239 334.418 50.6602 335.259 50.185C336.108 49.7023 337.024 49.3497 337.977 49.139C339.911 48.6983 341.927 48.786 343.815 49.393C344 49.4602 344.152 49.5971 344.239 49.7745C344.325 49.9519 344.338 50.1559 344.277 50.3433C344.215 50.5306 344.082 50.6864 343.907 50.7776C343.733 50.8689 343.529 50.8884 343.34 50.832L343.31 50.821L343.255 50.8Z" fill="#0C0C0C"></path>
    <path d="M309.994 57.7L309.878 57.218C331.921 51.889 328.978 30.504 328.945 30.288L329.435 30.214C329.468 30.434 332.484 52.262 309.994 57.7Z" fill="#0C0C0C"></path>
    <path opacity="0.1" d="M338.732 74.6C341.211 74.6 343.22 73.1261 343.22 71.308C343.22 69.4899 341.211 68.016 338.732 68.016C336.253 68.016 334.244 69.4899 334.244 71.308C334.244 73.1261 336.253 74.6 338.732 74.6Z" fill="#0C0C0C"></path>
    <path opacity="0.1" d="M365.407 70.521C365.407 72.337 367.421 73.81 369.899 73.814C370.327 73.8136 370.755 73.769 371.174 73.681C371.542 71.56 371.795 69.508 371.959 67.6C371.301 67.3489 370.601 67.2234 369.897 67.23C367.419 67.226 365.41 68.7 365.407 70.521Z" fill="#0C0C0C"></path>
    <path d="M411.32 187.286C410.195 200.494 404.726 282.898 403.646 299.167H254.673C253.831 284.493 250.052 220.332 246.861 191.638C243.815 164.257 237.838 150.549 242.219 142.454C249.378 129.224 268.94 121.58 282.278 119.774C290.424 118.674 302.678 117.88 302.678 117.88C302.678 117.88 303.715 138.864 328.449 140.032C362.118 141.62 359.87 117.88 360.036 117.88C365.491 117.88 396.65 121.333 404.274 125.852C425.043 138.153 413.706 159.3 411.32 187.286Z" fill="#367CFF"></path>
    <path d="M524.551 211.435C524.722 210.962 524.988 210.529 525.333 210.162C525.677 209.796 526.092 209.503 526.554 209.303C527.015 209.102 527.512 208.997 528.015 208.995C528.518 208.993 529.016 209.094 529.479 209.291C530.362 209.703 531.055 210.434 531.419 211.337C531.783 212.241 531.79 213.249 531.439 214.157L529.739 218.857L540.449 207.936C541.78 206.536 544.308 205.675 545.777 207.271C547.05 208.483 549.992 208.857 550.47 211.128C550.486 211.14 550.456 231.928 549.222 233.228C543.983 238.728 531.322 239.793 524.257 237L513.138 232.6L524.551 211.435Z" fill="#E98862"></path>
    <g opacity="0.1">
        <path d="M524.551 211.435C524.722 210.962 524.988 210.529 525.333 210.162C525.677 209.796 526.092 209.503 526.554 209.303C527.015 209.102 527.512 208.997 528.015 208.995C528.518 208.993 529.016 209.094 529.479 209.291C530.362 209.703 531.055 210.434 531.419 211.337C531.783 212.241 531.79 213.249 531.439 214.157L529.739 218.857L540.449 207.936C541.78 206.536 544.308 205.675 545.777 207.271C547.05 208.483 549.992 208.857 550.47 211.128C550.486 211.14 550.456 231.928 549.222 233.228C543.983 238.728 531.322 239.793 524.257 237L513.138 232.6L524.551 211.435Z" fill="#0C0C0C"></path>
    </g>
    <path d="M570.693 296.16L379.619 324.719C375.984 325.262 372.269 324.82 368.863 323.437C365.457 322.055 362.485 319.784 360.256 316.861C358.028 313.937 356.625 310.47 356.194 306.819C355.764 303.169 356.321 299.47 357.808 296.108L430.813 131.076C432.213 127.912 434.39 125.153 437.142 123.056C439.894 120.958 443.131 119.59 446.553 119.078C449.975 118.567 453.471 118.929 456.715 120.13C459.96 121.331 462.849 123.333 465.113 125.949L583.184 262.422C585.589 265.202 587.203 268.576 587.859 272.193C588.515 275.81 588.187 279.536 586.911 282.983C585.635 286.43 583.456 289.471 580.604 291.789C577.751 294.107 574.328 295.616 570.693 296.16Z" fill="#367CFF"></path>
    <path opacity="0.48" d="M570.693 296.16L379.619 324.719C375.984 325.262 372.269 324.82 368.863 323.437C365.457 322.055 362.485 319.784 360.256 316.861C358.028 313.937 356.625 310.47 356.194 306.819C355.764 303.169 356.321 299.47 357.808 296.108L430.813 131.076C432.213 127.912 434.39 125.153 437.142 123.056C439.894 120.958 443.131 119.59 446.553 119.078C449.975 118.567 453.471 118.929 456.715 120.13C459.96 121.331 462.849 123.333 465.113 125.949L583.184 262.422C585.589 265.202 587.203 268.576 587.859 272.193C588.515 275.81 588.187 279.536 586.911 282.983C585.635 286.43 583.456 289.471 580.604 291.789C577.751 294.107 574.328 295.616 570.693 296.16Z" fill="white"></path>
    <path d="M376.469 325.455C372.978 325.433 369.547 324.543 366.485 322.865C363.424 321.187 360.828 318.774 358.931 315.843C357.035 312.912 355.897 309.554 355.621 306.074C355.346 302.594 355.94 299.099 357.351 295.906L430.356 130.875C431.79 127.633 434.02 124.807 436.839 122.657C439.657 120.508 442.974 119.107 446.479 118.582C449.985 118.058 453.566 118.429 456.891 119.66C460.215 120.89 463.174 122.941 465.493 125.622L583.563 262.094C586.027 264.942 587.68 268.399 588.352 272.104C589.023 275.809 588.687 279.627 587.38 283.158C586.072 286.689 583.84 289.804 580.917 292.178C577.994 294.552 574.487 296.098 570.763 296.654L379.689 325.214C378.623 325.374 377.547 325.454 376.469 325.455ZM449.63 119.347C448.626 119.347 447.623 119.422 446.63 119.571C443.288 120.062 440.125 121.393 437.439 123.441C434.752 125.489 432.63 128.186 431.272 131.279L358.272 296.31C356.821 299.59 356.278 303.199 356.698 306.76C357.118 310.322 358.487 313.705 360.661 316.557C362.835 319.409 365.735 321.625 369.058 322.974C372.381 324.323 376.005 324.755 379.552 324.225L570.625 295.666C574.172 295.136 577.511 293.663 580.295 291.402C583.078 289.14 585.204 286.173 586.449 282.81C587.694 279.447 588.014 275.811 587.375 272.283C586.735 268.754 585.16 265.461 582.814 262.749L464.737 126.276C462.866 124.101 460.548 122.356 457.941 121.16C455.333 119.965 452.499 119.346 449.63 119.347Z" fill="#0C0C0C"></path>
    <path d="M446.373 196.462L442.218 174.327L466.904 170.637L469.404 193.019L473.631 244.764L457.464 247.18L446.373 196.462ZM454.46 273.482C453.149 264.71 458.466 257 467 255.724C475.534 254.448 482.877 260.266 484.188 269.039C485.488 277.753 480.173 285.461 471.636 286.739C463.099 288.017 455.763 282.2 454.46 273.482Z" fill="white"></path>
    <path d="M538.175 227.756C538.035 227.11 538.11 226.436 538.388 225.837C538.666 225.237 539.132 224.745 539.716 224.435C539.684 224.393 539.576 224.312 539.652 224.26L537.125 224.354C536.381 224.398 535.646 224.17 535.057 223.715C534.467 223.259 534.062 222.605 533.917 221.874C533.798 221.147 533.952 220.403 534.351 219.783C534.749 219.164 535.363 218.715 536.074 218.523C536.052 218.503 536.051 218.469 536.036 218.443L534.997 218.481C534.296 218.519 533.603 218.314 533.036 217.9C532.468 217.486 532.061 216.889 531.884 216.209C531.781 215.781 531.775 215.335 531.866 214.904C531.956 214.473 532.141 214.068 532.408 213.717C532.674 213.366 533.015 213.079 533.405 212.876C533.796 212.672 534.227 212.558 534.667 212.542L537.067 212.453C537.067 212.44 537.052 212.433 537.051 212.42C537.05 212.407 537.065 212.391 537.067 212.375C536.405 212.251 535.804 211.905 535.364 211.395C534.924 210.885 534.671 210.24 534.645 209.567C534.466 207.833 536.331 206.767 537.881 206.714L542.781 206.914C543.536 206.945 544.272 207.162 544.923 207.546C545.575 207.93 546.121 208.468 546.514 209.114C549.914 214.704 558.451 229.514 553.504 229.699L541.328 230.149C540.611 230.158 539.912 229.927 539.341 229.494C538.77 229.06 538.359 228.449 538.175 227.756Z" fill="#E98862"></path>
    <path d="M412.51 252.132C412.463 251.405 412.192 250.71 411.734 250.144C411.275 249.578 410.652 249.168 409.951 248.971C409.982 248.914 409.995 248.849 409.987 248.785C409.973 248.732 409.946 248.684 409.907 248.645C409.869 248.606 409.821 248.578 409.768 248.563L412.696 247.914C413.563 247.741 414.338 247.26 414.878 246.561C415.417 245.861 415.686 244.989 415.633 244.107C415.553 243.237 415.153 242.429 414.51 241.837C413.868 241.246 413.028 240.914 412.155 240.907C412.174 240.877 412.165 240.838 412.175 240.807L413.375 240.54C414.192 240.375 414.926 239.932 415.454 239.286C415.981 238.641 416.269 237.833 416.269 237C416.258 236.478 416.132 235.964 415.899 235.497C415.666 235.03 415.332 234.62 414.922 234.297C414.511 233.974 414.034 233.746 413.525 233.63C413.016 233.514 412.487 233.512 411.977 233.625L409.201 234.242C409.201 234.226 409.212 234.214 409.209 234.199C409.206 234.184 409.184 234.17 409.178 234.151C409.9 233.81 410.486 233.234 410.838 232.517C411.19 231.8 411.287 230.985 411.115 230.205C410.801 228.162 408.344 227.505 406.548 227.905L390.348 231.205L394.192 228.395C394.952 227.863 395.481 227.062 395.673 226.154C395.865 225.247 395.705 224.3 395.226 223.506C394.965 223.105 394.624 222.761 394.225 222.495C393.827 222.23 393.378 222.049 392.907 221.962C392.436 221.876 391.952 221.887 391.485 221.994C391.018 222.1 390.578 222.301 390.191 222.584L369.2 237.926C366.739 239.726 365.076 242.415 364.565 245.421C364.054 248.427 364.735 251.514 366.463 254.026C368.469 256.94 371.299 259.188 374.59 260.483C377.882 261.778 381.486 262.06 384.939 261.294L409.616 255.817C410.443 255.618 411.178 255.146 411.704 254.478C412.229 253.809 412.513 252.982 412.51 252.132Z" fill="#E98862"></path>
    <g opacity="0.25">
        <path d="M393.169 237.5C393.188 237.583 393.239 237.655 393.31 237.701C393.382 237.747 393.469 237.763 393.552 237.746L408.952 234.587C408.994 234.578 409.034 234.562 409.069 234.538C409.104 234.514 409.135 234.483 409.158 234.447C409.182 234.412 409.198 234.372 409.206 234.33C409.214 234.288 409.214 234.245 409.205 234.203C409.196 234.161 409.18 234.121 409.156 234.086C409.132 234.051 409.101 234.02 409.065 233.997C409.03 233.973 408.99 233.957 408.948 233.949C408.906 233.941 408.863 233.941 408.821 233.95L393.421 237.108C393.336 237.126 393.262 237.176 393.215 237.248C393.167 237.32 393.151 237.408 393.168 237.493L393.169 237.5Z" fill="#0C0C0C"></path>
    </g>
    <g opacity="0.25">
        <path d="M394.375 244.328C394.394 244.411 394.445 244.483 394.516 244.529C394.588 244.575 394.675 244.591 394.758 244.574L411.948 241.049C412.033 241.031 412.107 240.981 412.154 240.909C412.202 240.837 412.219 240.749 412.202 240.664C412.182 240.581 412.131 240.509 412.059 240.462C411.988 240.415 411.901 240.397 411.817 240.411L394.627 243.936C394.542 243.954 394.468 244.004 394.421 244.076C394.373 244.148 394.357 244.236 394.374 244.321L394.375 244.328Z" fill="#0C0C0C"></path>
    </g>
    <g opacity="0.25">
        <path d="M395.639 251.735C395.658 251.818 395.708 251.89 395.78 251.936C395.851 251.982 395.938 251.998 396.021 251.981L409.734 249.169C409.818 249.152 409.893 249.101 409.94 249.029C409.987 248.957 410.004 248.869 409.987 248.785C409.97 248.701 409.919 248.626 409.847 248.579C409.775 248.532 409.687 248.515 409.603 248.532L395.89 251.344C395.848 251.353 395.808 251.369 395.773 251.393C395.738 251.417 395.707 251.448 395.684 251.484C395.66 251.519 395.644 251.559 395.636 251.601C395.628 251.643 395.628 251.686 395.637 251.728L395.639 251.735Z" fill="#0C0C0C"></path>
    </g>
    <path d="M383.415 271.064L249.528 295.264C245.35 295.719 241.123 295.199 237.18 293.746C233.237 292.293 229.684 289.946 226.8 286.889C223.916 283.832 221.779 280.148 220.558 276.126C219.337 272.105 219.065 267.855 219.762 263.711L238.506 152.3C239.08 148.761 240.348 145.37 242.237 142.322C244.126 139.274 246.599 136.63 249.514 134.542C252.429 132.454 255.728 130.963 259.221 130.154C262.714 129.345 266.333 129.235 269.868 129.83C273.404 130.425 276.788 131.713 279.824 133.62C282.86 135.528 285.489 138.017 287.56 140.944C289.631 143.871 291.103 147.179 291.891 150.676C292.679 154.174 292.767 157.794 292.151 161.326L279.37 238.016L377.529 225.689L383.415 271.064Z" fill="#367CFF"></path>
    <path d="M249.527 295.755C249.409 295.746 249.297 295.696 249.213 295.612C249.129 295.529 249.076 295.419 249.066 295.3C249.056 295.182 249.087 295.064 249.156 294.968C249.224 294.871 249.325 294.801 249.44 294.772L382.864 270.661L377.1 226.242L279.431 238.508C279.354 238.518 279.277 238.51 279.204 238.484C279.131 238.459 279.065 238.416 279.012 238.36C278.959 238.304 278.919 238.237 278.896 238.163C278.873 238.089 278.868 238.011 278.88 237.935L287.005 188.918C287.041 188.803 287.117 188.705 287.22 188.642C287.323 188.578 287.445 188.554 287.564 188.574C287.683 188.594 287.791 188.656 287.868 188.749C287.944 188.842 287.985 188.959 287.982 189.08L279.966 237.442L377.466 225.197C377.596 225.182 377.727 225.218 377.83 225.298C377.934 225.378 378.002 225.495 378.02 225.625L383.907 271C383.923 271.126 383.89 271.252 383.816 271.355C383.741 271.457 383.631 271.528 383.507 271.552L249.62 295.752C249.589 295.755 249.558 295.756 249.527 295.755Z" fill="#0C0C0C"></path>
    <path d="M279.293 237.527L270.68 238.906L270.837 239.885L279.449 238.506L279.293 237.527Z" fill="#0C0C0C"></path>
    <path d="M555.467 761.1H114C113.795 761.1 113.598 761.019 113.453 760.874C113.308 760.729 113.227 760.532 113.227 760.327C113.227 760.122 113.308 759.925 113.453 759.78C113.598 759.635 113.795 759.554 114 759.554H555.467C555.672 759.554 555.869 759.635 556.014 759.78C556.159 759.925 556.24 760.122 556.24 760.327C556.24 760.532 556.159 760.729 556.014 760.874C555.869 761.019 555.672 761.1 555.467 761.1Z" fill="#3F3F3F"></path>
    <path d="M143.273 517.033L13.773 516.946C11.3094 516.944 8.89147 516.281 6.77172 515.025C4.65197 513.77 2.90809 511.968 1.72214 509.809C0.536188 507.649 -0.0483496 505.211 0.0295499 502.749C0.107449 500.286 0.844929 497.89 2.165 495.81L66.983 393.682C68.226 391.724 69.9438 390.111 71.9768 388.995C74.0097 387.878 76.292 387.294 78.6114 387.295C80.9308 387.297 83.2123 387.885 85.2437 389.004C87.2751 390.123 88.9907 391.738 90.231 393.698L154.912 495.913C156.229 497.995 156.963 500.393 157.038 502.855C157.112 505.318 156.524 507.755 155.335 509.913C154.146 512.071 152.399 513.87 150.278 515.122C148.156 516.375 145.737 517.035 143.273 517.033Z" fill="#F4F4F4"></path>
    <path d="M68.488 490.436C68.488 484.49 72.788 479.91 78.57 479.914C84.352 479.918 88.642 484.504 88.638 490.45C88.638 496.355 84.338 500.935 78.557 500.931C72.776 500.927 68.484 496.342 68.488 490.436ZM70.794 438.576L70.243 423.491L86.974 423.503L86.4 438.587L84.052 473.308L73.1 473.3L70.794 438.576Z" fill="white"></path>
    <path d="M193.843 181.814L89.62 181.744C87.637 181.743 85.6908 181.209 83.9845 180.199C82.2782 179.188 80.8745 177.738 79.9198 176C78.9651 174.262 78.4945 172.3 78.5572 170.318C78.6198 168.336 79.2134 166.407 80.276 164.733L132.443 82.539C133.443 80.9628 134.826 79.665 136.462 78.7662C138.098 77.8674 139.935 77.3967 141.801 77.3979C143.668 77.3991 145.504 77.8721 147.139 78.773C148.774 79.674 150.155 80.9735 151.153 82.551L203.209 164.816C204.269 166.492 204.861 168.421 204.921 170.403C204.981 172.385 204.508 174.347 203.551 176.084C202.594 177.82 201.188 179.268 199.481 180.276C197.773 181.284 195.826 181.815 193.843 181.814Z" fill="#F4F4F4"></path>
    <path d="M133.657 160.411C133.722 158.821 134.253 157.286 135.184 155.996C136.115 154.706 137.405 153.718 138.893 153.155C140.381 152.592 142.002 152.479 143.553 152.83C145.105 153.181 146.52 153.98 147.621 155.128C148.722 156.276 149.461 157.723 149.746 159.288C150.032 160.853 149.851 162.468 149.226 163.931C148.601 165.394 147.56 166.641 146.232 167.517C144.904 168.393 143.348 168.859 141.757 168.858C140.664 168.856 139.583 168.634 138.579 168.204C137.574 167.774 136.666 167.146 135.91 166.358C135.154 165.569 134.564 164.636 134.177 163.614C133.79 162.592 133.613 161.503 133.657 160.411ZM135.513 118.679L135.068 106.539L148.532 106.549L148.073 118.687L146.184 146.629L137.365 146.623L135.513 118.679Z" fill="white"></path>
    <path d="M617.636 613.506L503.9 613.429C501.736 613.428 499.611 612.846 497.749 611.744C495.886 610.641 494.354 609.059 493.312 607.162C492.27 605.266 491.756 603.124 491.824 600.961C491.892 598.797 492.54 596.692 493.7 594.865L550.63 505.165C551.722 503.445 553.231 502.029 555.016 501.048C556.802 500.067 558.807 499.554 560.844 499.555C562.881 499.557 564.885 500.073 566.669 501.056C568.454 502.039 569.961 503.457 571.05 505.179L627.859 594.954C629.016 596.783 629.661 598.889 629.727 601.052C629.792 603.215 629.276 605.356 628.232 607.252C627.187 609.147 625.653 610.728 623.789 611.828C621.925 612.928 619.8 613.507 617.636 613.506Z" fill="#F4F4F4"></path>
    <path d="M551.958 590.15C551.958 584.928 555.731 580.906 560.812 580.91C565.893 580.914 569.656 584.94 569.653 590.162C569.692 591.349 569.492 592.532 569.064 593.641C568.637 594.749 567.991 595.76 567.164 596.613C566.338 597.467 565.348 598.145 564.255 598.608C563.161 599.071 561.985 599.309 560.797 599.308C559.609 599.308 558.433 599.068 557.34 598.603C556.247 598.139 555.258 597.459 554.433 596.604C553.608 595.75 552.963 594.738 552.537 593.629C552.111 592.52 551.912 591.337 551.953 590.15H551.958ZM553.983 544.605L553.498 531.357L568.192 531.367L567.692 544.614L565.629 575.108L556 575.1L553.983 544.605Z" fill="white"></path>
</svg>
