<svg xmlns="http://www.w3.org/2000/svg" viewBox="0 0 1092.96 614.79"><rect width="1092.96" height="614.79" fill="#ffffff" id="bg" class="bg"/><g><g transform="translate(75.14,&#10;                                20.49) rotate(180, 6.831, 6.831)"><svg xmlns="http://www.w3.org/2000/svg" id="Layer_1" data-name="Layer 1" viewBox="0 0 100 100" width="13.662" height="13.662"><polygon points="97 12.912 87.088 3 50 40.088 12.912 3 3 12.912 40.088 50 3 87.088 12.912 97 50 59.912 87.088 97 97 87.088 59.912 50 97 12.912" fill="none" stroke="#FFD7C7" stroke-linecap="round" stroke-linejoin="round" stroke-width="6"/></svg></g><g transform="translate(75.14,&#10;                                75.14) rotate(180, 6.831, 6.831)"><svg xmlns="http://www.w3.org/2000/svg" id="Layer_1" data-name="Layer 1" viewBox="0 0 100 100" width="13.662" height="13.662"><polygon points="97 12.912 87.088 3 50 40.088 12.912 3 3 12.912 40.088 50 3 87.088 12.912 97 50 59.912 87.088 97 97 87.088 59.912 50 97 12.912" fill="none" stroke="#505050" stroke-linecap="round" stroke-linejoin="round" stroke-width="6"/></svg></g><g transform="translate(129.79,&#10;                                20.49) rotate(270, 6.831, 6.831)"><svg xmlns="http://www.w3.org/2000/svg" id="Layer_1" data-name="Layer 1" viewBox="0 0 100 100" width="13.662" height="13.662"><polygon points="97 12.912 87.088 3 50 40.088 12.912 3 3 12.912 40.088 50 3 87.088 12.912 97 50 59.912 87.088 97 97 87.088 59.912 50 97 12.912" fill="none" stroke="#505050" stroke-linecap="round" stroke-linejoin="round" stroke-width="6"/></svg></g><g transform="translate(184.44,&#10;                                20.49) rotate(90, 6.831, 6.831)"><svg xmlns="http://www.w3.org/2000/svg" id="Layer_1" data-name="Layer 1" viewBox="0 0 100 100" width="13.662" height="13.662"><polygon points="97 12.912 87.088 3 50 40.088 12.912 3 3 12.912 40.088 50 3 87.088 12.912 97 50 59.912 87.088 97 97 87.088 59.912 50 97 12.912" fill="none" stroke="#FFD7C7" stroke-linecap="round" stroke-linejoin="round" stroke-width="6"/></svg></g><g transform="translate(129.79,&#10;                                75.14) rotate(90, 6.831, 6.831)"><svg xmlns="http://www.w3.org/2000/svg" id="Layer_1" data-name="Layer 1" viewBox="0 0 100 100" width="13.662" height="13.662"><polygon points="97 12.912 87.088 3 50 40.088 12.912 3 3 12.912 40.088 50 3 87.088 12.912 97 50 59.912 87.088 97 97 87.088 59.912 50 97 12.912" fill="none" stroke="#CB2138" stroke-linecap="round" stroke-linejoin="round" stroke-width="6"/></svg></g><g transform="translate(184.44,&#10;                                75.14) rotate(270, 6.831, 6.831)"><svg xmlns="http://www.w3.org/2000/svg" id="Layer_1" data-name="Layer 1" viewBox="0 0 100 100" width="13.662" height="13.662"><polygon points="97 12.912 87.088 3 50 40.088 12.912 3 3 12.912 40.088 50 3 87.088 12.912 97 50 59.912 87.088 97 97 87.088 59.912 50 97 12.912" fill="none" stroke="#505050" stroke-linecap="round" stroke-linejoin="round" stroke-width="6"/></svg></g><g transform="translate(293.73,&#10;                                75.14) rotate(0, 6.831, 6.831)"><svg xmlns="http://www.w3.org/2000/svg" id="Layer_1" data-name="Layer 1" viewBox="0 0 100 100" width="13.662" height="13.662"><polygon points="97 12.912 87.088 3 50 40.088 12.912 3 3 12.912 40.088 50 3 87.088 12.912 97 50 59.912 87.088 97 97 87.088 59.912 50 97 12.912" fill="none" stroke="#505050" stroke-linecap="round" stroke-linejoin="round" stroke-width="6"/></svg></g><g transform="translate(348.38,&#10;                                20.49) rotate(0, 6.831, 6.831)"><svg xmlns="http://www.w3.org/2000/svg" id="Layer_1" data-name="Layer 1" viewBox="0 0 100 100" width="13.662" height="13.662"><polygon points="97 12.912 87.088 3 50 40.088 12.912 3 3 12.912 40.088 50 3 87.088 12.912 97 50 59.912 87.088 97 97 87.088 59.912 50 97 12.912" fill="none" stroke="#CB2138" stroke-linecap="round" stroke-linejoin="round" stroke-width="6"/></svg></g><g transform="translate(403.03,&#10;                                20.49) rotate(90, 6.831, 6.831)"><svg xmlns="http://www.w3.org/2000/svg" id="Layer_1" data-name="Layer 1" viewBox="0 0 100 100" width="13.662" height="13.662"><polygon points="97 12.912 87.088 3 50 40.088 12.912 3 3 12.912 40.088 50 3 87.088 12.912 97 50 59.912 87.088 97 97 87.088 59.912 50 97 12.912" fill="none" stroke="#505050" stroke-linecap="round" stroke-linejoin="round" stroke-width="6"/></svg></g><g transform="translate(403.03,&#10;                                75.14) rotate(270, 6.831, 6.831)"><svg xmlns="http://www.w3.org/2000/svg" id="Layer_1" data-name="Layer 1" viewBox="0 0 100 100" width="13.662" height="13.662"><polygon points="97 12.912 87.088 3 50 40.088 12.912 3 3 12.912 40.088 50 3 87.088 12.912 97 50 59.912 87.088 97 97 87.088 59.912 50 97 12.912" fill="none" stroke="#505050" stroke-linecap="round" stroke-linejoin="round" stroke-width="6"/></svg></g><g transform="translate(457.68,&#10;                                20.49) rotate(180, 6.831, 6.831)"><svg xmlns="http://www.w3.org/2000/svg" id="Layer_1" data-name="Layer 1" viewBox="0 0 100 100" width="13.662" height="13.662"><polygon points="97 12.912 87.088 3 50 40.088 12.912 3 3 12.912 40.088 50 3 87.088 12.912 97 50 59.912 87.088 97 97 87.088 59.912 50 97 12.912" fill="none" stroke="#505050" stroke-linecap="round" stroke-linejoin="round" stroke-width="6"/></svg></g><g transform="translate(512.33,&#10;                                75.14) rotate(180, 6.831, 6.831)"><svg xmlns="http://www.w3.org/2000/svg" id="Layer_1" data-name="Layer 1" viewBox="0 0 100 100" width="13.662" height="13.662"><polygon points="97 12.912 87.088 3 50 40.088 12.912 3 3 12.912 40.088 50 3 87.088 12.912 97 50 59.912 87.088 97 97 87.088 59.912 50 97 12.912" fill="none" stroke="#FFD7C7" stroke-linecap="round" stroke-linejoin="round" stroke-width="6"/></svg></g><g transform="translate(566.97,&#10;                                20.49) rotate(0, 6.831, 6.831)"><svg xmlns="http://www.w3.org/2000/svg" id="Layer_1" data-name="Layer 1" viewBox="0 0 100 100" width="13.662" height="13.662"><polygon points="97 12.912 87.088 3 50 40.088 12.912 3 3 12.912 40.088 50 3 87.088 12.912 97 50 59.912 87.088 97 97 87.088 59.912 50 97 12.912" fill="none" stroke="#CB2138" stroke-linecap="round" stroke-linejoin="round" stroke-width="6"/></svg></g><g transform="translate(621.62,&#10;                                20.49) rotate(270, 6.831, 6.831)"><svg xmlns="http://www.w3.org/2000/svg" id="Layer_1" data-name="Layer 1" viewBox="0 0 100 100" width="13.662" height="13.662"><polygon points="97 12.912 87.088 3 50 40.088 12.912 3 3 12.912 40.088 50 3 87.088 12.912 97 50 59.912 87.088 97 97 87.088 59.912 50 97 12.912" fill="none" stroke="#505050" stroke-linecap="round" stroke-linejoin="round" stroke-width="6"/></svg></g><g transform="translate(621.62,&#10;                                75.14) rotate(270, 6.831, 6.831)"><svg xmlns="http://www.w3.org/2000/svg" id="Layer_1" data-name="Layer 1" viewBox="0 0 100 100" width="13.662" height="13.662"><polygon points="97 12.912 87.088 3 50 40.088 12.912 3 3 12.912 40.088 50 3 87.088 12.912 97 50 59.912 87.088 97 97 87.088 59.912 50 97 12.912" fill="none" stroke="#32CD32" stroke-linecap="round" stroke-linejoin="round" stroke-width="6"/></svg></g><g transform="translate(676.27,&#10;                                20.49) rotate(270, 6.831, 6.831)"><svg xmlns="http://www.w3.org/2000/svg" id="Layer_1" data-name="Layer 1" viewBox="0 0 100 100" width="13.662" height="13.662"><polygon points="97 12.912 87.088 3 50 40.088 12.912 3 3 12.912 40.088 50 3 87.088 12.912 97 50 59.912 87.088 97 97 87.088 59.912 50 97 12.912" fill="none" stroke="#FFD7C7" stroke-linecap="round" stroke-linejoin="round" stroke-width="6"/></svg></g><g transform="translate(730.92,&#10;                                20.49) rotate(0, 6.831, 6.831)"><svg xmlns="http://www.w3.org/2000/svg" id="Layer_1" data-name="Layer 1" viewBox="0 0 100 100" width="13.662" height="13.662"><polygon points="97 12.912 87.088 3 50 40.088 12.912 3 3 12.912 40.088 50 3 87.088 12.912 97 50 59.912 87.088 97 97 87.088 59.912 50 97 12.912" fill="none" stroke="#FFD7C7" stroke-linecap="round" stroke-linejoin="round" stroke-width="6"/></svg></g><g transform="translate(676.27,&#10;                                75.14) rotate(270, 6.831, 6.831)"><svg xmlns="http://www.w3.org/2000/svg" id="Layer_1" data-name="Layer 1" viewBox="0 0 100 100" width="13.662" height="13.662"><polygon points="97 12.912 87.088 3 50 40.088 12.912 3 3 12.912 40.088 50 3 87.088 12.912 97 50 59.912 87.088 97 97 87.088 59.912 50 97 12.912" fill="none" stroke="#CB2138" stroke-linecap="round" stroke-linejoin="round" stroke-width="6"/></svg></g><g transform="translate(730.92,&#10;                                75.14) rotate(180, 6.831, 6.831)"><svg xmlns="http://www.w3.org/2000/svg" id="Layer_1" data-name="Layer 1" viewBox="0 0 100 100" width="13.662" height="13.662"><polygon points="97 12.912 87.088 3 50 40.088 12.912 3 3 12.912 40.088 50 3 87.088 12.912 97 50 59.912 87.088 97 97 87.088 59.912 50 97 12.912" fill="none" stroke="#505050" stroke-linecap="round" stroke-linejoin="round" stroke-width="6"/></svg></g><g transform="translate(840.21,&#10;                                20.49) rotate(270, 6.831, 6.831)"><svg xmlns="http://www.w3.org/2000/svg" id="Layer_1" data-name="Layer 1" viewBox="0 0 100 100" width="13.662" height="13.662"><polygon points="97 12.912 87.088 3 50 40.088 12.912 3 3 12.912 40.088 50 3 87.088 12.912 97 50 59.912 87.088 97 97 87.088 59.912 50 97 12.912" fill="none" stroke="#505050" stroke-linecap="round" stroke-linejoin="round" stroke-width="6"/></svg></g><g transform="translate(785.57,&#10;                                75.14) rotate(0, 6.831, 6.831)"><svg xmlns="http://www.w3.org/2000/svg" id="Layer_1" data-name="Layer 1" viewBox="0 0 100 100" width="13.662" height="13.662"><polygon points="97 12.912 87.088 3 50 40.088 12.912 3 3 12.912 40.088 50 3 87.088 12.912 97 50 59.912 87.088 97 97 87.088 59.912 50 97 12.912" fill="none" stroke="#CB2138" stroke-linecap="round" stroke-linejoin="round" stroke-width="6"/></svg></g><g transform="translate(840.21,&#10;                                75.14) rotate(180, 6.831, 6.831)"><svg xmlns="http://www.w3.org/2000/svg" id="Layer_1" data-name="Layer 1" viewBox="0 0 100 100" width="13.662" height="13.662"><polygon points="97 12.912 87.088 3 50 40.088 12.912 3 3 12.912 40.088 50 3 87.088 12.912 97 50 59.912 87.088 97 97 87.088 59.912 50 97 12.912" fill="none" stroke="#505050" stroke-linecap="round" stroke-linejoin="round" stroke-width="6"/></svg></g><g transform="translate(949.51,&#10;                                75.14) rotate(180, 6.831, 6.831)"><svg xmlns="http://www.w3.org/2000/svg" id="Layer_1" data-name="Layer 1" viewBox="0 0 100 100" width="13.662" height="13.662"><polygon points="97 12.912 87.088 3 50 40.088 12.912 3 3 12.912 40.088 50 3 87.088 12.912 97 50 59.912 87.088 97 97 87.088 59.912 50 97 12.912" fill="none" stroke="#32CD32" stroke-linecap="round" stroke-linejoin="round" stroke-width="6"/></svg></g><g transform="translate(1058.81,&#10;                                20.49) rotate(90, 6.831, 6.831)"><svg xmlns="http://www.w3.org/2000/svg" id="Layer_1" data-name="Layer 1" viewBox="0 0 100 100" width="13.662" height="13.662"><polygon points="97 12.912 87.088 3 50 40.088 12.912 3 3 12.912 40.088 50 3 87.088 12.912 97 50 59.912 87.088 97 97 87.088 59.912 50 97 12.912" fill="none" stroke="#FFD7C7" stroke-linecap="round" stroke-linejoin="round" stroke-width="6"/></svg></g><g transform="translate(1058.81,&#10;                                75.14) rotate(270, 6.831, 6.831)"><svg xmlns="http://www.w3.org/2000/svg" id="Layer_1" data-name="Layer 1" viewBox="0 0 100 100" width="13.662" height="13.662"><polygon points="97 12.912 87.088 3 50 40.088 12.912 3 3 12.912 40.088 50 3 87.088 12.912 97 50 59.912 87.088 97 97 87.088 59.912 50 97 12.912" fill="none" stroke="#FFD7C7" stroke-linecap="round" stroke-linejoin="round" stroke-width="6"/></svg></g></g><g><g transform="translate(20.49,&#10;                                129.79) rotate(180, 6.831, 6.831)"><svg xmlns="http://www.w3.org/2000/svg" id="Layer_1" data-name="Layer 1" viewBox="0 0 100 100" width="13.662" height="13.662"><polygon points="97 12.912 87.088 3 50 40.088 12.912 3 3 12.912 40.088 50 3 87.088 12.912 97 50 59.912 87.088 97 97 87.088 59.912 50 97 12.912" fill="none" stroke="#FFD7C7" stroke-linecap="round" stroke-linejoin="round" stroke-width="6"/></svg></g><g transform="translate(75.14,&#10;                                129.79) rotate(90, 6.831, 6.831)"><svg xmlns="http://www.w3.org/2000/svg" id="Layer_1" data-name="Layer 1" viewBox="0 0 100 100" width="13.662" height="13.662"><polygon points="97 12.912 87.088 3 50 40.088 12.912 3 3 12.912 40.088 50 3 87.088 12.912 97 50 59.912 87.088 97 97 87.088 59.912 50 97 12.912" fill="none" stroke="#FFD7C7" stroke-linecap="round" stroke-linejoin="round" stroke-width="6"/></svg></g><g transform="translate(75.14,&#10;                                184.44) rotate(90, 6.831, 6.831)"><svg xmlns="http://www.w3.org/2000/svg" id="Layer_1" data-name="Layer 1" viewBox="0 0 100 100" width="13.662" height="13.662"><polygon points="97 12.912 87.088 3 50 40.088 12.912 3 3 12.912 40.088 50 3 87.088 12.912 97 50 59.912 87.088 97 97 87.088 59.912 50 97 12.912" fill="none" stroke="#505050" stroke-linecap="round" stroke-linejoin="round" stroke-width="6"/></svg></g><g transform="translate(184.44,&#10;                                184.44) rotate(90, 6.831, 6.831)"><svg xmlns="http://www.w3.org/2000/svg" id="Layer_1" data-name="Layer 1" viewBox="0 0 100 100" width="13.662" height="13.662"><polygon points="97 12.912 87.088 3 50 40.088 12.912 3 3 12.912 40.088 50 3 87.088 12.912 97 50 59.912 87.088 97 97 87.088 59.912 50 97 12.912" fill="none" stroke="#505050" stroke-linecap="round" stroke-linejoin="round" stroke-width="6"/></svg></g><g transform="translate(293.73,&#10;                                129.79) rotate(180, 6.831, 6.831)"><svg xmlns="http://www.w3.org/2000/svg" id="Layer_1" data-name="Layer 1" viewBox="0 0 100 100" width="13.662" height="13.662"><polygon points="97 12.912 87.088 3 50 40.088 12.912 3 3 12.912 40.088 50 3 87.088 12.912 97 50 59.912 87.088 97 97 87.088 59.912 50 97 12.912" fill="none" stroke="#FFD7C7" stroke-linecap="round" stroke-linejoin="round" stroke-width="6"/></svg></g><g transform="translate(293.73,&#10;                                184.44) rotate(270, 6.831, 6.831)"><svg xmlns="http://www.w3.org/2000/svg" id="Layer_1" data-name="Layer 1" viewBox="0 0 100 100" width="13.662" height="13.662"><polygon points="97 12.912 87.088 3 50 40.088 12.912 3 3 12.912 40.088 50 3 87.088 12.912 97 50 59.912 87.088 97 97 87.088 59.912 50 97 12.912" fill="none" stroke="#505050" stroke-linecap="round" stroke-linejoin="round" stroke-width="6"/></svg></g><g transform="translate(348.38,&#10;                                129.79) rotate(90, 6.831, 6.831)"><svg xmlns="http://www.w3.org/2000/svg" id="Layer_1" data-name="Layer 1" viewBox="0 0 100 100" width="13.662" height="13.662"><polygon points="97 12.912 87.088 3 50 40.088 12.912 3 3 12.912 40.088 50 3 87.088 12.912 97 50 59.912 87.088 97 97 87.088 59.912 50 97 12.912" fill="none" stroke="#505050" stroke-linecap="round" stroke-linejoin="round" stroke-width="6"/></svg></g><g transform="translate(403.03,&#10;                                129.79) rotate(90, 6.831, 6.831)"><svg xmlns="http://www.w3.org/2000/svg" id="Layer_1" data-name="Layer 1" viewBox="0 0 100 100" width="13.662" height="13.662"><polygon points="97 12.912 87.088 3 50 40.088 12.912 3 3 12.912 40.088 50 3 87.088 12.912 97 50 59.912 87.088 97 97 87.088 59.912 50 97 12.912" fill="none" stroke="#FFD7C7" stroke-linecap="round" stroke-linejoin="round" stroke-width="6"/></svg></g><g transform="translate(403.03,&#10;                                184.44) rotate(90, 6.831, 6.831)"><svg xmlns="http://www.w3.org/2000/svg" id="Layer_1" data-name="Layer 1" viewBox="0 0 100 100" width="13.662" height="13.662"><polygon points="97 12.912 87.088 3 50 40.088 12.912 3 3 12.912 40.088 50 3 87.088 12.912 97 50 59.912 87.088 97 97 87.088 59.912 50 97 12.912" fill="none" stroke="#32CD32" stroke-linecap="round" stroke-linejoin="round" stroke-width="6"/></svg></g><g transform="translate(457.68,&#10;                                129.79) rotate(90, 6.831, 6.831)"><svg xmlns="http://www.w3.org/2000/svg" id="Layer_1" data-name="Layer 1" viewBox="0 0 100 100" width="13.662" height="13.662"><polygon points="97 12.912 87.088 3 50 40.088 12.912 3 3 12.912 40.088 50 3 87.088 12.912 97 50 59.912 87.088 97 97 87.088 59.912 50 97 12.912" fill="none" stroke="#505050" stroke-linecap="round" stroke-linejoin="round" stroke-width="6"/></svg></g><g transform="translate(512.33,&#10;                                184.44) rotate(180, 6.831, 6.831)"><svg xmlns="http://www.w3.org/2000/svg" id="Layer_1" data-name="Layer 1" viewBox="0 0 100 100" width="13.662" height="13.662"><polygon points="97 12.912 87.088 3 50 40.088 12.912 3 3 12.912 40.088 50 3 87.088 12.912 97 50 59.912 87.088 97 97 87.088 59.912 50 97 12.912" fill="none" stroke="#FFD7C7" stroke-linecap="round" stroke-linejoin="round" stroke-width="6"/></svg></g><g transform="translate(566.97,&#10;                                129.79) rotate(0, 6.831, 6.831)"><svg xmlns="http://www.w3.org/2000/svg" id="Layer_1" data-name="Layer 1" viewBox="0 0 100 100" width="13.662" height="13.662"><polygon points="97 12.912 87.088 3 50 40.088 12.912 3 3 12.912 40.088 50 3 87.088 12.912 97 50 59.912 87.088 97 97 87.088 59.912 50 97 12.912" fill="none" stroke="#FFD7C7" stroke-linecap="round" stroke-linejoin="round" stroke-width="6"/></svg></g><g transform="translate(621.62,&#10;                                129.79) rotate(0, 6.831, 6.831)"><svg xmlns="http://www.w3.org/2000/svg" id="Layer_1" data-name="Layer 1" viewBox="0 0 100 100" width="13.662" height="13.662"><polygon points="97 12.912 87.088 3 50 40.088 12.912 3 3 12.912 40.088 50 3 87.088 12.912 97 50 59.912 87.088 97 97 87.088 59.912 50 97 12.912" fill="none" stroke="#505050" stroke-linecap="round" stroke-linejoin="round" stroke-width="6"/></svg></g><g transform="translate(621.62,&#10;                                184.44) rotate(180, 6.831, 6.831)"><svg xmlns="http://www.w3.org/2000/svg" id="Layer_1" data-name="Layer 1" viewBox="0 0 100 100" width="13.662" height="13.662"><polygon points="97 12.912 87.088 3 50 40.088 12.912 3 3 12.912 40.088 50 3 87.088 12.912 97 50 59.912 87.088 97 97 87.088 59.912 50 97 12.912" fill="none" stroke="#32CD32" stroke-linecap="round" stroke-linejoin="round" stroke-width="6"/></svg></g><g transform="translate(676.27,&#10;                                184.44) rotate(0, 6.831, 6.831)"><svg xmlns="http://www.w3.org/2000/svg" id="Layer_1" data-name="Layer 1" viewBox="0 0 100 100" width="13.662" height="13.662"><polygon points="97 12.912 87.088 3 50 40.088 12.912 3 3 12.912 40.088 50 3 87.088 12.912 97 50 59.912 87.088 97 97 87.088 59.912 50 97 12.912" fill="none" stroke="#CB2138" stroke-linecap="round" stroke-linejoin="round" stroke-width="6"/></svg></g><g transform="translate(730.92,&#10;                                184.44) rotate(90, 6.831, 6.831)"><svg xmlns="http://www.w3.org/2000/svg" id="Layer_1" data-name="Layer 1" viewBox="0 0 100 100" width="13.662" height="13.662"><polygon points="97 12.912 87.088 3 50 40.088 12.912 3 3 12.912 40.088 50 3 87.088 12.912 97 50 59.912 87.088 97 97 87.088 59.912 50 97 12.912" fill="none" stroke="#FFD7C7" stroke-linecap="round" stroke-linejoin="round" stroke-width="6"/></svg></g><g transform="translate(785.57,&#10;                                129.79) rotate(270, 6.831, 6.831)"><svg xmlns="http://www.w3.org/2000/svg" id="Layer_1" data-name="Layer 1" viewBox="0 0 100 100" width="13.662" height="13.662"><polygon points="97 12.912 87.088 3 50 40.088 12.912 3 3 12.912 40.088 50 3 87.088 12.912 97 50 59.912 87.088 97 97 87.088 59.912 50 97 12.912" fill="none" stroke="#CB2138" stroke-linecap="round" stroke-linejoin="round" stroke-width="6"/></svg></g><g transform="translate(840.21,&#10;                                184.44) rotate(270, 6.831, 6.831)"><svg xmlns="http://www.w3.org/2000/svg" id="Layer_1" data-name="Layer 1" viewBox="0 0 100 100" width="13.662" height="13.662"><polygon points="97 12.912 87.088 3 50 40.088 12.912 3 3 12.912 40.088 50 3 87.088 12.912 97 50 59.912 87.088 97 97 87.088 59.912 50 97 12.912" fill="none" stroke="#32CD32" stroke-linecap="round" stroke-linejoin="round" stroke-width="6"/></svg></g><g transform="translate(949.51,&#10;                                129.79) rotate(90, 6.831, 6.831)"><svg xmlns="http://www.w3.org/2000/svg" id="Layer_1" data-name="Layer 1" viewBox="0 0 100 100" width="13.662" height="13.662"><polygon points="97 12.912 87.088 3 50 40.088 12.912 3 3 12.912 40.088 50 3 87.088 12.912 97 50 59.912 87.088 97 97 87.088 59.912 50 97 12.912" fill="none" stroke="#505050" stroke-linecap="round" stroke-linejoin="round" stroke-width="6"/></svg></g><g transform="translate(949.51,&#10;                                184.44) rotate(180, 6.831, 6.831)"><svg xmlns="http://www.w3.org/2000/svg" id="Layer_1" data-name="Layer 1" viewBox="0 0 100 100" width="13.662" height="13.662"><polygon points="97 12.912 87.088 3 50 40.088 12.912 3 3 12.912 40.088 50 3 87.088 12.912 97 50 59.912 87.088 97 97 87.088 59.912 50 97 12.912" fill="none" stroke="#FFD7C7" stroke-linecap="round" stroke-linejoin="round" stroke-width="6"/></svg></g><g transform="translate(1058.81,&#10;                                129.79) rotate(90, 6.831, 6.831)"><svg xmlns="http://www.w3.org/2000/svg" id="Layer_1" data-name="Layer 1" viewBox="0 0 100 100" width="13.662" height="13.662"><polygon points="97 12.912 87.088 3 50 40.088 12.912 3 3 12.912 40.088 50 3 87.088 12.912 97 50 59.912 87.088 97 97 87.088 59.912 50 97 12.912" fill="none" stroke="#FFD7C7" stroke-linecap="round" stroke-linejoin="round" stroke-width="6"/></svg></g><g transform="translate(1058.81,&#10;                                184.44) rotate(0, 6.831, 6.831)"><svg xmlns="http://www.w3.org/2000/svg" id="Layer_1" data-name="Layer 1" viewBox="0 0 100 100" width="13.662" height="13.662"><polygon points="97 12.912 87.088 3 50 40.088 12.912 3 3 12.912 40.088 50 3 87.088 12.912 97 50 59.912 87.088 97 97 87.088 59.912 50 97 12.912" fill="none" stroke="#32CD32" stroke-linecap="round" stroke-linejoin="round" stroke-width="6"/></svg></g></g><g><g transform="translate(20.49,&#10;                                239.09) rotate(180, 6.831, 6.831)"><svg xmlns="http://www.w3.org/2000/svg" id="Layer_1" data-name="Layer 1" viewBox="0 0 100 100" width="13.662" height="13.662"><polygon points="97 12.912 87.088 3 50 40.088 12.912 3 3 12.912 40.088 50 3 87.088 12.912 97 50 59.912 87.088 97 97 87.088 59.912 50 97 12.912" fill="none" stroke="#FFD7C7" stroke-linecap="round" stroke-linejoin="round" stroke-width="6"/></svg></g><g transform="translate(75.14,&#10;                                239.09) rotate(270, 6.831, 6.831)"><svg xmlns="http://www.w3.org/2000/svg" id="Layer_1" data-name="Layer 1" viewBox="0 0 100 100" width="13.662" height="13.662"><polygon points="97 12.912 87.088 3 50 40.088 12.912 3 3 12.912 40.088 50 3 87.088 12.912 97 50 59.912 87.088 97 97 87.088 59.912 50 97 12.912" fill="none" stroke="#FFD7C7" stroke-linecap="round" stroke-linejoin="round" stroke-width="6"/></svg></g><g transform="translate(20.49,&#10;                                293.73) rotate(90, 6.831, 6.831)"><svg xmlns="http://www.w3.org/2000/svg" id="Layer_1" data-name="Layer 1" viewBox="0 0 100 100" width="13.662" height="13.662"><polygon points="97 12.912 87.088 3 50 40.088 12.912 3 3 12.912 40.088 50 3 87.088 12.912 97 50 59.912 87.088 97 97 87.088 59.912 50 97 12.912" fill="none" stroke="#CB2138" stroke-linecap="round" stroke-linejoin="round" stroke-width="6"/></svg></g><g transform="translate(75.14,&#10;                                293.73) rotate(0, 6.831, 6.831)"><svg xmlns="http://www.w3.org/2000/svg" id="Layer_1" data-name="Layer 1" viewBox="0 0 100 100" width="13.662" height="13.662"><polygon points="97 12.912 87.088 3 50 40.088 12.912 3 3 12.912 40.088 50 3 87.088 12.912 97 50 59.912 87.088 97 97 87.088 59.912 50 97 12.912" fill="none" stroke="#32CD32" stroke-linecap="round" stroke-linejoin="round" stroke-width="6"/></svg></g><g transform="translate(129.79,&#10;                                239.09) rotate(0, 6.831, 6.831)"><svg xmlns="http://www.w3.org/2000/svg" id="Layer_1" data-name="Layer 1" viewBox="0 0 100 100" width="13.662" height="13.662"><polygon points="97 12.912 87.088 3 50 40.088 12.912 3 3 12.912 40.088 50 3 87.088 12.912 97 50 59.912 87.088 97 97 87.088 59.912 50 97 12.912" fill="none" stroke="#505050" stroke-linecap="round" stroke-linejoin="round" stroke-width="6"/></svg></g><g transform="translate(184.44,&#10;                                239.09) rotate(0, 6.831, 6.831)"><svg xmlns="http://www.w3.org/2000/svg" id="Layer_1" data-name="Layer 1" viewBox="0 0 100 100" width="13.662" height="13.662"><polygon points="97 12.912 87.088 3 50 40.088 12.912 3 3 12.912 40.088 50 3 87.088 12.912 97 50 59.912 87.088 97 97 87.088 59.912 50 97 12.912" fill="none" stroke="#505050" stroke-linecap="round" stroke-linejoin="round" stroke-width="6"/></svg></g><g transform="translate(184.44,&#10;                                293.73) rotate(270, 6.831, 6.831)"><svg xmlns="http://www.w3.org/2000/svg" id="Layer_1" data-name="Layer 1" viewBox="0 0 100 100" width="13.662" height="13.662"><polygon points="97 12.912 87.088 3 50 40.088 12.912 3 3 12.912 40.088 50 3 87.088 12.912 97 50 59.912 87.088 97 97 87.088 59.912 50 97 12.912" fill="none" stroke="#FFD7C7" stroke-linecap="round" stroke-linejoin="round" stroke-width="6"/></svg></g><g transform="translate(239.09,&#10;                                239.09) rotate(0, 6.831, 6.831)"><svg xmlns="http://www.w3.org/2000/svg" id="Layer_1" data-name="Layer 1" viewBox="0 0 100 100" width="13.662" height="13.662"><polygon points="97 12.912 87.088 3 50 40.088 12.912 3 3 12.912 40.088 50 3 87.088 12.912 97 50 59.912 87.088 97 97 87.088 59.912 50 97 12.912" fill="none" stroke="#FFD7C7" stroke-linecap="round" stroke-linejoin="round" stroke-width="6"/></svg></g><g transform="translate(293.73,&#10;                                293.73) rotate(90, 6.831, 6.831)"><svg xmlns="http://www.w3.org/2000/svg" id="Layer_1" data-name="Layer 1" viewBox="0 0 100 100" width="13.662" height="13.662"><polygon points="97 12.912 87.088 3 50 40.088 12.912 3 3 12.912 40.088 50 3 87.088 12.912 97 50 59.912 87.088 97 97 87.088 59.912 50 97 12.912" fill="none" stroke="#32CD32" stroke-linecap="round" stroke-linejoin="round" stroke-width="6"/></svg></g><g transform="translate(348.38,&#10;                                239.09) rotate(90, 6.831, 6.831)"><svg xmlns="http://www.w3.org/2000/svg" id="Layer_1" data-name="Layer 1" viewBox="0 0 100 100" width="13.662" height="13.662"><polygon points="97 12.912 87.088 3 50 40.088 12.912 3 3 12.912 40.088 50 3 87.088 12.912 97 50 59.912 87.088 97 97 87.088 59.912 50 97 12.912" fill="none" stroke="#505050" stroke-linecap="round" stroke-linejoin="round" stroke-width="6"/></svg></g><g transform="translate(403.03,&#10;                                239.09) rotate(270, 6.831, 6.831)"><svg xmlns="http://www.w3.org/2000/svg" id="Layer_1" data-name="Layer 1" viewBox="0 0 100 100" width="13.662" height="13.662"><polygon points="97 12.912 87.088 3 50 40.088 12.912 3 3 12.912 40.088 50 3 87.088 12.912 97 50 59.912 87.088 97 97 87.088 59.912 50 97 12.912" fill="none" stroke="#505050" stroke-linecap="round" stroke-linejoin="round" stroke-width="6"/></svg></g><g transform="translate(403.03,&#10;                                293.73) rotate(0, 6.831, 6.831)"><svg xmlns="http://www.w3.org/2000/svg" id="Layer_1" data-name="Layer 1" viewBox="0 0 100 100" width="13.662" height="13.662"><polygon points="97 12.912 87.088 3 50 40.088 12.912 3 3 12.912 40.088 50 3 87.088 12.912 97 50 59.912 87.088 97 97 87.088 59.912 50 97 12.912" fill="none" stroke="#505050" stroke-linecap="round" stroke-linejoin="round" stroke-width="6"/></svg></g><g transform="translate(457.68,&#10;                                293.73) rotate(0, 6.831, 6.831)"><svg xmlns="http://www.w3.org/2000/svg" id="Layer_1" data-name="Layer 1" viewBox="0 0 100 100" width="13.662" height="13.662"><polygon points="97 12.912 87.088 3 50 40.088 12.912 3 3 12.912 40.088 50 3 87.088 12.912 97 50 59.912 87.088 97 97 87.088 59.912 50 97 12.912" fill="none" stroke="#CB2138" stroke-linecap="round" stroke-linejoin="round" stroke-width="6"/></svg></g><g transform="translate(512.33,&#10;                                293.73) rotate(270, 6.831, 6.831)"><svg xmlns="http://www.w3.org/2000/svg" id="Layer_1" data-name="Layer 1" viewBox="0 0 100 100" width="13.662" height="13.662"><polygon points="97 12.912 87.088 3 50 40.088 12.912 3 3 12.912 40.088 50 3 87.088 12.912 97 50 59.912 87.088 97 97 87.088 59.912 50 97 12.912" fill="none" stroke="#32CD32" stroke-linecap="round" stroke-linejoin="round" stroke-width="6"/></svg></g><g transform="translate(566.97,&#10;                                239.09) rotate(180, 6.831, 6.831)"><svg xmlns="http://www.w3.org/2000/svg" id="Layer_1" data-name="Layer 1" viewBox="0 0 100 100" width="13.662" height="13.662"><polygon points="97 12.912 87.088 3 50 40.088 12.912 3 3 12.912 40.088 50 3 87.088 12.912 97 50 59.912 87.088 97 97 87.088 59.912 50 97 12.912" fill="none" stroke="#CB2138" stroke-linecap="round" stroke-linejoin="round" stroke-width="6"/></svg></g><g transform="translate(621.62,&#10;                                293.73) rotate(0, 6.831, 6.831)"><svg xmlns="http://www.w3.org/2000/svg" id="Layer_1" data-name="Layer 1" viewBox="0 0 100 100" width="13.662" height="13.662"><polygon points="97 12.912 87.088 3 50 40.088 12.912 3 3 12.912 40.088 50 3 87.088 12.912 97 50 59.912 87.088 97 97 87.088 59.912 50 97 12.912" fill="none" stroke="#505050" stroke-linecap="round" stroke-linejoin="round" stroke-width="6"/></svg></g><g transform="translate(676.27,&#10;                                239.09) rotate(0, 6.831, 6.831)"><svg xmlns="http://www.w3.org/2000/svg" id="Layer_1" data-name="Layer 1" viewBox="0 0 100 100" width="13.662" height="13.662"><polygon points="97 12.912 87.088 3 50 40.088 12.912 3 3 12.912 40.088 50 3 87.088 12.912 97 50 59.912 87.088 97 97 87.088 59.912 50 97 12.912" fill="none" stroke="#FFD7C7" stroke-linecap="round" stroke-linejoin="round" stroke-width="6"/></svg></g><g transform="translate(730.92,&#10;                                293.73) rotate(0, 6.831, 6.831)"><svg xmlns="http://www.w3.org/2000/svg" id="Layer_1" data-name="Layer 1" viewBox="0 0 100 100" width="13.662" height="13.662"><polygon points="97 12.912 87.088 3 50 40.088 12.912 3 3 12.912 40.088 50 3 87.088 12.912 97 50 59.912 87.088 97 97 87.088 59.912 50 97 12.912" fill="none" stroke="#32CD32" stroke-linecap="round" stroke-linejoin="round" stroke-width="6"/></svg></g><g transform="translate(840.21,&#10;                                239.09) rotate(180, 6.831, 6.831)"><svg xmlns="http://www.w3.org/2000/svg" id="Layer_1" data-name="Layer 1" viewBox="0 0 100 100" width="13.662" height="13.662"><polygon points="97 12.912 87.088 3 50 40.088 12.912 3 3 12.912 40.088 50 3 87.088 12.912 97 50 59.912 87.088 97 97 87.088 59.912 50 97 12.912" fill="none" stroke="#505050" stroke-linecap="round" stroke-linejoin="round" stroke-width="6"/></svg></g><g transform="translate(785.57,&#10;                                293.73) rotate(270, 6.831, 6.831)"><svg xmlns="http://www.w3.org/2000/svg" id="Layer_1" data-name="Layer 1" viewBox="0 0 100 100" width="13.662" height="13.662"><polygon points="97 12.912 87.088 3 50 40.088 12.912 3 3 12.912 40.088 50 3 87.088 12.912 97 50 59.912 87.088 97 97 87.088 59.912 50 97 12.912" fill="none" stroke="#CB2138" stroke-linecap="round" stroke-linejoin="round" stroke-width="6"/></svg></g><g transform="translate(840.21,&#10;                                293.73) rotate(0, 6.831, 6.831)"><svg xmlns="http://www.w3.org/2000/svg" id="Layer_1" data-name="Layer 1" viewBox="0 0 100 100" width="13.662" height="13.662"><polygon points="97 12.912 87.088 3 50 40.088 12.912 3 3 12.912 40.088 50 3 87.088 12.912 97 50 59.912 87.088 97 97 87.088 59.912 50 97 12.912" fill="none" stroke="#FFD7C7" stroke-linecap="round" stroke-linejoin="round" stroke-width="6"/></svg></g><g transform="translate(949.51,&#10;                                293.73) rotate(90, 6.831, 6.831)"><svg xmlns="http://www.w3.org/2000/svg" id="Layer_1" data-name="Layer 1" viewBox="0 0 100 100" width="13.662" height="13.662"><polygon points="97 12.912 87.088 3 50 40.088 12.912 3 3 12.912 40.088 50 3 87.088 12.912 97 50 59.912 87.088 97 97 87.088 59.912 50 97 12.912" fill="none" stroke="#32CD32" stroke-linecap="round" stroke-linejoin="round" stroke-width="6"/></svg></g><g transform="translate(1058.81,&#10;                                239.09) rotate(90, 6.831, 6.831)"><svg xmlns="http://www.w3.org/2000/svg" id="Layer_1" data-name="Layer 1" viewBox="0 0 100 100" width="13.662" height="13.662"><polygon points="97 12.912 87.088 3 50 40.088 12.912 3 3 12.912 40.088 50 3 87.088 12.912 97 50 59.912 87.088 97 97 87.088 59.912 50 97 12.912" fill="none" stroke="#FFD7C7" stroke-linecap="round" stroke-linejoin="round" stroke-width="6"/></svg></g><g transform="translate(1058.81,&#10;                                293.73) rotate(270, 6.831, 6.831)"><svg xmlns="http://www.w3.org/2000/svg" id="Layer_1" data-name="Layer 1" viewBox="0 0 100 100" width="13.662" height="13.662"><polygon points="97 12.912 87.088 3 50 40.088 12.912 3 3 12.912 40.088 50 3 87.088 12.912 97 50 59.912 87.088 97 97 87.088 59.912 50 97 12.912" fill="none" stroke="#32CD32" stroke-linecap="round" stroke-linejoin="round" stroke-width="6"/></svg></g></g><g><g transform="translate(20.49,&#10;                                348.38) rotate(270, 6.831, 6.831)"><svg xmlns="http://www.w3.org/2000/svg" id="Layer_1" data-name="Layer 1" viewBox="0 0 100 100" width="13.662" height="13.662"><polygon points="97 12.912 87.088 3 50 40.088 12.912 3 3 12.912 40.088 50 3 87.088 12.912 97 50 59.912 87.088 97 97 87.088 59.912 50 97 12.912" fill="none" stroke="#505050" stroke-linecap="round" stroke-linejoin="round" stroke-width="6"/></svg></g><g transform="translate(75.14,&#10;                                403.03) rotate(180, 6.831, 6.831)"><svg xmlns="http://www.w3.org/2000/svg" id="Layer_1" data-name="Layer 1" viewBox="0 0 100 100" width="13.662" height="13.662"><polygon points="97 12.912 87.088 3 50 40.088 12.912 3 3 12.912 40.088 50 3 87.088 12.912 97 50 59.912 87.088 97 97 87.088 59.912 50 97 12.912" fill="none" stroke="#32CD32" stroke-linecap="round" stroke-linejoin="round" stroke-width="6"/></svg></g><g transform="translate(129.79,&#10;                                348.38) rotate(180, 6.831, 6.831)"><svg xmlns="http://www.w3.org/2000/svg" id="Layer_1" data-name="Layer 1" viewBox="0 0 100 100" width="13.662" height="13.662"><polygon points="97 12.912 87.088 3 50 40.088 12.912 3 3 12.912 40.088 50 3 87.088 12.912 97 50 59.912 87.088 97 97 87.088 59.912 50 97 12.912" fill="none" stroke="#505050" stroke-linecap="round" stroke-linejoin="round" stroke-width="6"/></svg></g><g transform="translate(129.79,&#10;                                403.03) rotate(180, 6.831, 6.831)"><svg xmlns="http://www.w3.org/2000/svg" id="Layer_1" data-name="Layer 1" viewBox="0 0 100 100" width="13.662" height="13.662"><polygon points="97 12.912 87.088 3 50 40.088 12.912 3 3 12.912 40.088 50 3 87.088 12.912 97 50 59.912 87.088 97 97 87.088 59.912 50 97 12.912" fill="none" stroke="#CB2138" stroke-linecap="round" stroke-linejoin="round" stroke-width="6"/></svg></g><g transform="translate(184.44,&#10;                                403.03) rotate(0, 6.831, 6.831)"><svg xmlns="http://www.w3.org/2000/svg" id="Layer_1" data-name="Layer 1" viewBox="0 0 100 100" width="13.662" height="13.662"><polygon points="97 12.912 87.088 3 50 40.088 12.912 3 3 12.912 40.088 50 3 87.088 12.912 97 50 59.912 87.088 97 97 87.088 59.912 50 97 12.912" fill="none" stroke="#32CD32" stroke-linecap="round" stroke-linejoin="round" stroke-width="6"/></svg></g><g transform="translate(239.09,&#10;                                348.38) rotate(180, 6.831, 6.831)"><svg xmlns="http://www.w3.org/2000/svg" id="Layer_1" data-name="Layer 1" viewBox="0 0 100 100" width="13.662" height="13.662"><polygon points="97 12.912 87.088 3 50 40.088 12.912 3 3 12.912 40.088 50 3 87.088 12.912 97 50 59.912 87.088 97 97 87.088 59.912 50 97 12.912" fill="none" stroke="#CB2138" stroke-linecap="round" stroke-linejoin="round" stroke-width="6"/></svg></g><g transform="translate(293.73,&#10;                                403.03) rotate(0, 6.831, 6.831)"><svg xmlns="http://www.w3.org/2000/svg" id="Layer_1" data-name="Layer 1" viewBox="0 0 100 100" width="13.662" height="13.662"><polygon points="97 12.912 87.088 3 50 40.088 12.912 3 3 12.912 40.088 50 3 87.088 12.912 97 50 59.912 87.088 97 97 87.088 59.912 50 97 12.912" fill="none" stroke="#505050" stroke-linecap="round" stroke-linejoin="round" stroke-width="6"/></svg></g><g transform="translate(348.38,&#10;                                348.38) rotate(90, 6.831, 6.831)"><svg xmlns="http://www.w3.org/2000/svg" id="Layer_1" data-name="Layer 1" viewBox="0 0 100 100" width="13.662" height="13.662"><polygon points="97 12.912 87.088 3 50 40.088 12.912 3 3 12.912 40.088 50 3 87.088 12.912 97 50 59.912 87.088 97 97 87.088 59.912 50 97 12.912" fill="none" stroke="#FFD7C7" stroke-linecap="round" stroke-linejoin="round" stroke-width="6"/></svg></g><g transform="translate(403.03,&#10;                                348.38) rotate(90, 6.831, 6.831)"><svg xmlns="http://www.w3.org/2000/svg" id="Layer_1" data-name="Layer 1" viewBox="0 0 100 100" width="13.662" height="13.662"><polygon points="97 12.912 87.088 3 50 40.088 12.912 3 3 12.912 40.088 50 3 87.088 12.912 97 50 59.912 87.088 97 97 87.088 59.912 50 97 12.912" fill="none" stroke="#FFD7C7" stroke-linecap="round" stroke-linejoin="round" stroke-width="6"/></svg></g><g transform="translate(348.38,&#10;                                403.03) rotate(180, 6.831, 6.831)"><svg xmlns="http://www.w3.org/2000/svg" id="Layer_1" data-name="Layer 1" viewBox="0 0 100 100" width="13.662" height="13.662"><polygon points="97 12.912 87.088 3 50 40.088 12.912 3 3 12.912 40.088 50 3 87.088 12.912 97 50 59.912 87.088 97 97 87.088 59.912 50 97 12.912" fill="none" stroke="#CB2138" stroke-linecap="round" stroke-linejoin="round" stroke-width="6"/></svg></g><g transform="translate(403.03,&#10;                                403.03) rotate(270, 6.831, 6.831)"><svg xmlns="http://www.w3.org/2000/svg" id="Layer_1" data-name="Layer 1" viewBox="0 0 100 100" width="13.662" height="13.662"><polygon points="97 12.912 87.088 3 50 40.088 12.912 3 3 12.912 40.088 50 3 87.088 12.912 97 50 59.912 87.088 97 97 87.088 59.912 50 97 12.912" fill="none" stroke="#32CD32" stroke-linecap="round" stroke-linejoin="round" stroke-width="6"/></svg></g><g transform="translate(512.33,&#10;                                348.38) rotate(90, 6.831, 6.831)"><svg xmlns="http://www.w3.org/2000/svg" id="Layer_1" data-name="Layer 1" viewBox="0 0 100 100" width="13.662" height="13.662"><polygon points="97 12.912 87.088 3 50 40.088 12.912 3 3 12.912 40.088 50 3 87.088 12.912 97 50 59.912 87.088 97 97 87.088 59.912 50 97 12.912" fill="none" stroke="#FFD7C7" stroke-linecap="round" stroke-linejoin="round" stroke-width="6"/></svg></g><g transform="translate(457.68,&#10;                                403.03) rotate(90, 6.831, 6.831)"><svg xmlns="http://www.w3.org/2000/svg" id="Layer_1" data-name="Layer 1" viewBox="0 0 100 100" width="13.662" height="13.662"><polygon points="97 12.912 87.088 3 50 40.088 12.912 3 3 12.912 40.088 50 3 87.088 12.912 97 50 59.912 87.088 97 97 87.088 59.912 50 97 12.912" fill="none" stroke="#CB2138" stroke-linecap="round" stroke-linejoin="round" stroke-width="6"/></svg></g><g transform="translate(512.33,&#10;                                403.03) rotate(0, 6.831, 6.831)"><svg xmlns="http://www.w3.org/2000/svg" id="Layer_1" data-name="Layer 1" viewBox="0 0 100 100" width="13.662" height="13.662"><polygon points="97 12.912 87.088 3 50 40.088 12.912 3 3 12.912 40.088 50 3 87.088 12.912 97 50 59.912 87.088 97 97 87.088 59.912 50 97 12.912" fill="none" stroke="#FFD7C7" stroke-linecap="round" stroke-linejoin="round" stroke-width="6"/></svg></g><g transform="translate(566.97,&#10;                                403.03) rotate(270, 6.831, 6.831)"><svg xmlns="http://www.w3.org/2000/svg" id="Layer_1" data-name="Layer 1" viewBox="0 0 100 100" width="13.662" height="13.662"><polygon points="97 12.912 87.088 3 50 40.088 12.912 3 3 12.912 40.088 50 3 87.088 12.912 97 50 59.912 87.088 97 97 87.088 59.912 50 97 12.912" fill="none" stroke="#CB2138" stroke-linecap="round" stroke-linejoin="round" stroke-width="6"/></svg></g><g transform="translate(621.62,&#10;                                403.03) rotate(90, 6.831, 6.831)"><svg xmlns="http://www.w3.org/2000/svg" id="Layer_1" data-name="Layer 1" viewBox="0 0 100 100" width="13.662" height="13.662"><polygon points="97 12.912 87.088 3 50 40.088 12.912 3 3 12.912 40.088 50 3 87.088 12.912 97 50 59.912 87.088 97 97 87.088 59.912 50 97 12.912" fill="none" stroke="#32CD32" stroke-linecap="round" stroke-linejoin="round" stroke-width="6"/></svg></g><g transform="translate(676.27,&#10;                                348.38) rotate(0, 6.831, 6.831)"><svg xmlns="http://www.w3.org/2000/svg" id="Layer_1" data-name="Layer 1" viewBox="0 0 100 100" width="13.662" height="13.662"><polygon points="97 12.912 87.088 3 50 40.088 12.912 3 3 12.912 40.088 50 3 87.088 12.912 97 50 59.912 87.088 97 97 87.088 59.912 50 97 12.912" fill="none" stroke="#FFD7C7" stroke-linecap="round" stroke-linejoin="round" stroke-width="6"/></svg></g><g transform="translate(730.92,&#10;                                348.38) rotate(0, 6.831, 6.831)"><svg xmlns="http://www.w3.org/2000/svg" id="Layer_1" data-name="Layer 1" viewBox="0 0 100 100" width="13.662" height="13.662"><polygon points="97 12.912 87.088 3 50 40.088 12.912 3 3 12.912 40.088 50 3 87.088 12.912 97 50 59.912 87.088 97 97 87.088 59.912 50 97 12.912" fill="none" stroke="#505050" stroke-linecap="round" stroke-linejoin="round" stroke-width="6"/></svg></g><g transform="translate(676.27,&#10;                                403.03) rotate(90, 6.831, 6.831)"><svg xmlns="http://www.w3.org/2000/svg" id="Layer_1" data-name="Layer 1" viewBox="0 0 100 100" width="13.662" height="13.662"><polygon points="97 12.912 87.088 3 50 40.088 12.912 3 3 12.912 40.088 50 3 87.088 12.912 97 50 59.912 87.088 97 97 87.088 59.912 50 97 12.912" fill="none" stroke="#CB2138" stroke-linecap="round" stroke-linejoin="round" stroke-width="6"/></svg></g><g transform="translate(730.92,&#10;                                403.03) rotate(180, 6.831, 6.831)"><svg xmlns="http://www.w3.org/2000/svg" id="Layer_1" data-name="Layer 1" viewBox="0 0 100 100" width="13.662" height="13.662"><polygon points="97 12.912 87.088 3 50 40.088 12.912 3 3 12.912 40.088 50 3 87.088 12.912 97 50 59.912 87.088 97 97 87.088 59.912 50 97 12.912" fill="none" stroke="#505050" stroke-linecap="round" stroke-linejoin="round" stroke-width="6"/></svg></g><g transform="translate(785.57,&#10;                                348.38) rotate(0, 6.831, 6.831)"><svg xmlns="http://www.w3.org/2000/svg" id="Layer_1" data-name="Layer 1" viewBox="0 0 100 100" width="13.662" height="13.662"><polygon points="97 12.912 87.088 3 50 40.088 12.912 3 3 12.912 40.088 50 3 87.088 12.912 97 50 59.912 87.088 97 97 87.088 59.912 50 97 12.912" fill="none" stroke="#FFD7C7" stroke-linecap="round" stroke-linejoin="round" stroke-width="6"/></svg></g><g transform="translate(840.21,&#10;                                348.38) rotate(180, 6.831, 6.831)"><svg xmlns="http://www.w3.org/2000/svg" id="Layer_1" data-name="Layer 1" viewBox="0 0 100 100" width="13.662" height="13.662"><polygon points="97 12.912 87.088 3 50 40.088 12.912 3 3 12.912 40.088 50 3 87.088 12.912 97 50 59.912 87.088 97 97 87.088 59.912 50 97 12.912" fill="none" stroke="#FFD7C7" stroke-linecap="round" stroke-linejoin="round" stroke-width="6"/></svg></g><g transform="translate(785.57,&#10;                                403.03) rotate(180, 6.831, 6.831)"><svg xmlns="http://www.w3.org/2000/svg" id="Layer_1" data-name="Layer 1" viewBox="0 0 100 100" width="13.662" height="13.662"><polygon points="97 12.912 87.088 3 50 40.088 12.912 3 3 12.912 40.088 50 3 87.088 12.912 97 50 59.912 87.088 97 97 87.088 59.912 50 97 12.912" fill="none" stroke="#CB2138" stroke-linecap="round" stroke-linejoin="round" stroke-width="6"/></svg></g><g transform="translate(840.21,&#10;                                403.03) rotate(180, 6.831, 6.831)"><svg xmlns="http://www.w3.org/2000/svg" id="Layer_1" data-name="Layer 1" viewBox="0 0 100 100" width="13.662" height="13.662"><polygon points="97 12.912 87.088 3 50 40.088 12.912 3 3 12.912 40.088 50 3 87.088 12.912 97 50 59.912 87.088 97 97 87.088 59.912 50 97 12.912" fill="none" stroke="#505050" stroke-linecap="round" stroke-linejoin="round" stroke-width="6"/></svg></g><g transform="translate(894.86,&#10;                                348.38) rotate(180, 6.831, 6.831)"><svg xmlns="http://www.w3.org/2000/svg" id="Layer_1" data-name="Layer 1" viewBox="0 0 100 100" width="13.662" height="13.662"><polygon points="97 12.912 87.088 3 50 40.088 12.912 3 3 12.912 40.088 50 3 87.088 12.912 97 50 59.912 87.088 97 97 87.088 59.912 50 97 12.912" fill="none" stroke="#CB2138" stroke-linecap="round" stroke-linejoin="round" stroke-width="6"/></svg></g><g transform="translate(949.51,&#10;                                348.38) rotate(90, 6.831, 6.831)"><svg xmlns="http://www.w3.org/2000/svg" id="Layer_1" data-name="Layer 1" viewBox="0 0 100 100" width="13.662" height="13.662"><polygon points="97 12.912 87.088 3 50 40.088 12.912 3 3 12.912 40.088 50 3 87.088 12.912 97 50 59.912 87.088 97 97 87.088 59.912 50 97 12.912" fill="none" stroke="#FFD7C7" stroke-linecap="round" stroke-linejoin="round" stroke-width="6"/></svg></g><g transform="translate(894.86,&#10;                                403.03) rotate(270, 6.831, 6.831)"><svg xmlns="http://www.w3.org/2000/svg" id="Layer_1" data-name="Layer 1" viewBox="0 0 100 100" width="13.662" height="13.662"><polygon points="97 12.912 87.088 3 50 40.088 12.912 3 3 12.912 40.088 50 3 87.088 12.912 97 50 59.912 87.088 97 97 87.088 59.912 50 97 12.912" fill="none" stroke="#CB2138" stroke-linecap="round" stroke-linejoin="round" stroke-width="6"/></svg></g><g transform="translate(949.51,&#10;                                403.03) rotate(180, 6.831, 6.831)"><svg xmlns="http://www.w3.org/2000/svg" id="Layer_1" data-name="Layer 1" viewBox="0 0 100 100" width="13.662" height="13.662"><polygon points="97 12.912 87.088 3 50 40.088 12.912 3 3 12.912 40.088 50 3 87.088 12.912 97 50 59.912 87.088 97 97 87.088 59.912 50 97 12.912" fill="none" stroke="#505050" stroke-linecap="round" stroke-linejoin="round" stroke-width="6"/></svg></g><g transform="translate(1004.16,&#10;                                348.38) rotate(90, 6.831, 6.831)"><svg xmlns="http://www.w3.org/2000/svg" id="Layer_1" data-name="Layer 1" viewBox="0 0 100 100" width="13.662" height="13.662"><polygon points="97 12.912 87.088 3 50 40.088 12.912 3 3 12.912 40.088 50 3 87.088 12.912 97 50 59.912 87.088 97 97 87.088 59.912 50 97 12.912" fill="none" stroke="#FFD7C7" stroke-linecap="round" stroke-linejoin="round" stroke-width="6"/></svg></g><g transform="translate(1058.81,&#10;                                348.38) rotate(180, 6.831, 6.831)"><svg xmlns="http://www.w3.org/2000/svg" id="Layer_1" data-name="Layer 1" viewBox="0 0 100 100" width="13.662" height="13.662"><polygon points="97 12.912 87.088 3 50 40.088 12.912 3 3 12.912 40.088 50 3 87.088 12.912 97 50 59.912 87.088 97 97 87.088 59.912 50 97 12.912" fill="none" stroke="#505050" stroke-linecap="round" stroke-linejoin="round" stroke-width="6"/></svg></g><g transform="translate(1058.81,&#10;                                403.03) rotate(270, 6.831, 6.831)"><svg xmlns="http://www.w3.org/2000/svg" id="Layer_1" data-name="Layer 1" viewBox="0 0 100 100" width="13.662" height="13.662"><polygon points="97 12.912 87.088 3 50 40.088 12.912 3 3 12.912 40.088 50 3 87.088 12.912 97 50 59.912 87.088 97 97 87.088 59.912 50 97 12.912" fill="none" stroke="#FFD7C7" stroke-linecap="round" stroke-linejoin="round" stroke-width="6"/></svg></g></g><g><g transform="translate(75.14,&#10;                                457.68) rotate(90, 6.831, 6.831)"><svg xmlns="http://www.w3.org/2000/svg" id="Layer_1" data-name="Layer 1" viewBox="0 0 100 100" width="13.662" height="13.662"><polygon points="97 12.912 87.088 3 50 40.088 12.912 3 3 12.912 40.088 50 3 87.088 12.912 97 50 59.912 87.088 97 97 87.088 59.912 50 97 12.912" fill="none" stroke="#505050" stroke-linecap="round" stroke-linejoin="round" stroke-width="6"/></svg></g><g transform="translate(75.14,&#10;                                512.33) rotate(0, 6.831, 6.831)"><svg xmlns="http://www.w3.org/2000/svg" id="Layer_1" data-name="Layer 1" viewBox="0 0 100 100" width="13.662" height="13.662"><polygon points="97 12.912 87.088 3 50 40.088 12.912 3 3 12.912 40.088 50 3 87.088 12.912 97 50 59.912 87.088 97 97 87.088 59.912 50 97 12.912" fill="none" stroke="#505050" stroke-linecap="round" stroke-linejoin="round" stroke-width="6"/></svg></g><g transform="translate(129.79,&#10;                                457.68) rotate(270, 6.831, 6.831)"><svg xmlns="http://www.w3.org/2000/svg" id="Layer_1" data-name="Layer 1" viewBox="0 0 100 100" width="13.662" height="13.662"><polygon points="97 12.912 87.088 3 50 40.088 12.912 3 3 12.912 40.088 50 3 87.088 12.912 97 50 59.912 87.088 97 97 87.088 59.912 50 97 12.912" fill="none" stroke="#CB2138" stroke-linecap="round" stroke-linejoin="round" stroke-width="6"/></svg></g><g transform="translate(184.44,&#10;                                457.68) rotate(0, 6.831, 6.831)"><svg xmlns="http://www.w3.org/2000/svg" id="Layer_1" data-name="Layer 1" viewBox="0 0 100 100" width="13.662" height="13.662"><polygon points="97 12.912 87.088 3 50 40.088 12.912 3 3 12.912 40.088 50 3 87.088 12.912 97 50 59.912 87.088 97 97 87.088 59.912 50 97 12.912" fill="none" stroke="#FFD7C7" stroke-linecap="round" stroke-linejoin="round" stroke-width="6"/></svg></g><g transform="translate(129.79,&#10;                                512.33) rotate(0, 6.831, 6.831)"><svg xmlns="http://www.w3.org/2000/svg" id="Layer_1" data-name="Layer 1" viewBox="0 0 100 100" width="13.662" height="13.662"><polygon points="97 12.912 87.088 3 50 40.088 12.912 3 3 12.912 40.088 50 3 87.088 12.912 97 50 59.912 87.088 97 97 87.088 59.912 50 97 12.912" fill="none" stroke="#CB2138" stroke-linecap="round" stroke-linejoin="round" stroke-width="6"/></svg></g><g transform="translate(184.44,&#10;                                512.33) rotate(0, 6.831, 6.831)"><svg xmlns="http://www.w3.org/2000/svg" id="Layer_1" data-name="Layer 1" viewBox="0 0 100 100" width="13.662" height="13.662"><polygon points="97 12.912 87.088 3 50 40.088 12.912 3 3 12.912 40.088 50 3 87.088 12.912 97 50 59.912 87.088 97 97 87.088 59.912 50 97 12.912" fill="none" stroke="#32CD32" stroke-linecap="round" stroke-linejoin="round" stroke-width="6"/></svg></g><g transform="translate(239.09,&#10;                                457.68) rotate(270, 6.831, 6.831)"><svg xmlns="http://www.w3.org/2000/svg" id="Layer_1" data-name="Layer 1" viewBox="0 0 100 100" width="13.662" height="13.662"><polygon points="97 12.912 87.088 3 50 40.088 12.912 3 3 12.912 40.088 50 3 87.088 12.912 97 50 59.912 87.088 97 97 87.088 59.912 50 97 12.912" fill="none" stroke="#505050" stroke-linecap="round" stroke-linejoin="round" stroke-width="6"/></svg></g><g transform="translate(293.73,&#10;                                512.33) rotate(270, 6.831, 6.831)"><svg xmlns="http://www.w3.org/2000/svg" id="Layer_1" data-name="Layer 1" viewBox="0 0 100 100" width="13.662" height="13.662"><polygon points="97 12.912 87.088 3 50 40.088 12.912 3 3 12.912 40.088 50 3 87.088 12.912 97 50 59.912 87.088 97 97 87.088 59.912 50 97 12.912" fill="none" stroke="#FFD7C7" stroke-linecap="round" stroke-linejoin="round" stroke-width="6"/></svg></g><g transform="translate(403.03,&#10;                                457.68) rotate(270, 6.831, 6.831)"><svg xmlns="http://www.w3.org/2000/svg" id="Layer_1" data-name="Layer 1" viewBox="0 0 100 100" width="13.662" height="13.662"><polygon points="97 12.912 87.088 3 50 40.088 12.912 3 3 12.912 40.088 50 3 87.088 12.912 97 50 59.912 87.088 97 97 87.088 59.912 50 97 12.912" fill="none" stroke="#FFD7C7" stroke-linecap="round" stroke-linejoin="round" stroke-width="6"/></svg></g><g transform="translate(403.03,&#10;                                512.33) rotate(270, 6.831, 6.831)"><svg xmlns="http://www.w3.org/2000/svg" id="Layer_1" data-name="Layer 1" viewBox="0 0 100 100" width="13.662" height="13.662"><polygon points="97 12.912 87.088 3 50 40.088 12.912 3 3 12.912 40.088 50 3 87.088 12.912 97 50 59.912 87.088 97 97 87.088 59.912 50 97 12.912" fill="none" stroke="#505050" stroke-linecap="round" stroke-linejoin="round" stroke-width="6"/></svg></g><g transform="translate(512.33,&#10;                                457.68) rotate(90, 6.831, 6.831)"><svg xmlns="http://www.w3.org/2000/svg" id="Layer_1" data-name="Layer 1" viewBox="0 0 100 100" width="13.662" height="13.662"><polygon points="97 12.912 87.088 3 50 40.088 12.912 3 3 12.912 40.088 50 3 87.088 12.912 97 50 59.912 87.088 97 97 87.088 59.912 50 97 12.912" fill="none" stroke="#505050" stroke-linecap="round" stroke-linejoin="round" stroke-width="6"/></svg></g><g transform="translate(512.33,&#10;                                512.33) rotate(180, 6.831, 6.831)"><svg xmlns="http://www.w3.org/2000/svg" id="Layer_1" data-name="Layer 1" viewBox="0 0 100 100" width="13.662" height="13.662"><polygon points="97 12.912 87.088 3 50 40.088 12.912 3 3 12.912 40.088 50 3 87.088 12.912 97 50 59.912 87.088 97 97 87.088 59.912 50 97 12.912" fill="none" stroke="#FFD7C7" stroke-linecap="round" stroke-linejoin="round" stroke-width="6"/></svg></g><g transform="translate(621.62,&#10;                                457.68) rotate(0, 6.831, 6.831)"><svg xmlns="http://www.w3.org/2000/svg" id="Layer_1" data-name="Layer 1" viewBox="0 0 100 100" width="13.662" height="13.662"><polygon points="97 12.912 87.088 3 50 40.088 12.912 3 3 12.912 40.088 50 3 87.088 12.912 97 50 59.912 87.088 97 97 87.088 59.912 50 97 12.912" fill="none" stroke="#FFD7C7" stroke-linecap="round" stroke-linejoin="round" stroke-width="6"/></svg></g><g transform="translate(621.62,&#10;                                512.33) rotate(270, 6.831, 6.831)"><svg xmlns="http://www.w3.org/2000/svg" id="Layer_1" data-name="Layer 1" viewBox="0 0 100 100" width="13.662" height="13.662"><polygon points="97 12.912 87.088 3 50 40.088 12.912 3 3 12.912 40.088 50 3 87.088 12.912 97 50 59.912 87.088 97 97 87.088 59.912 50 97 12.912" fill="none" stroke="#32CD32" stroke-linecap="round" stroke-linejoin="round" stroke-width="6"/></svg></g><g transform="translate(676.27,&#10;                                457.68) rotate(180, 6.831, 6.831)"><svg xmlns="http://www.w3.org/2000/svg" id="Layer_1" data-name="Layer 1" viewBox="0 0 100 100" width="13.662" height="13.662"><polygon points="97 12.912 87.088 3 50 40.088 12.912 3 3 12.912 40.088 50 3 87.088 12.912 97 50 59.912 87.088 97 97 87.088 59.912 50 97 12.912" fill="none" stroke="#505050" stroke-linecap="round" stroke-linejoin="round" stroke-width="6"/></svg></g><g transform="translate(730.92,&#10;                                512.33) rotate(270, 6.831, 6.831)"><svg xmlns="http://www.w3.org/2000/svg" id="Layer_1" data-name="Layer 1" viewBox="0 0 100 100" width="13.662" height="13.662"><polygon points="97 12.912 87.088 3 50 40.088 12.912 3 3 12.912 40.088 50 3 87.088 12.912 97 50 59.912 87.088 97 97 87.088 59.912 50 97 12.912" fill="none" stroke="#32CD32" stroke-linecap="round" stroke-linejoin="round" stroke-width="6"/></svg></g><g transform="translate(785.57,&#10;                                457.68) rotate(270, 6.831, 6.831)"><svg xmlns="http://www.w3.org/2000/svg" id="Layer_1" data-name="Layer 1" viewBox="0 0 100 100" width="13.662" height="13.662"><polygon points="97 12.912 87.088 3 50 40.088 12.912 3 3 12.912 40.088 50 3 87.088 12.912 97 50 59.912 87.088 97 97 87.088 59.912 50 97 12.912" fill="none" stroke="#505050" stroke-linecap="round" stroke-linejoin="round" stroke-width="6"/></svg></g><g transform="translate(840.21,&#10;                                457.68) rotate(90, 6.831, 6.831)"><svg xmlns="http://www.w3.org/2000/svg" id="Layer_1" data-name="Layer 1" viewBox="0 0 100 100" width="13.662" height="13.662"><polygon points="97 12.912 87.088 3 50 40.088 12.912 3 3 12.912 40.088 50 3 87.088 12.912 97 50 59.912 87.088 97 97 87.088 59.912 50 97 12.912" fill="none" stroke="#505050" stroke-linecap="round" stroke-linejoin="round" stroke-width="6"/></svg></g><g transform="translate(785.57,&#10;                                512.33) rotate(270, 6.831, 6.831)"><svg xmlns="http://www.w3.org/2000/svg" id="Layer_1" data-name="Layer 1" viewBox="0 0 100 100" width="13.662" height="13.662"><polygon points="97 12.912 87.088 3 50 40.088 12.912 3 3 12.912 40.088 50 3 87.088 12.912 97 50 59.912 87.088 97 97 87.088 59.912 50 97 12.912" fill="none" stroke="#CB2138" stroke-linecap="round" stroke-linejoin="round" stroke-width="6"/></svg></g><g transform="translate(840.21,&#10;                                512.33) rotate(180, 6.831, 6.831)"><svg xmlns="http://www.w3.org/2000/svg" id="Layer_1" data-name="Layer 1" viewBox="0 0 100 100" width="13.662" height="13.662"><polygon points="97 12.912 87.088 3 50 40.088 12.912 3 3 12.912 40.088 50 3 87.088 12.912 97 50 59.912 87.088 97 97 87.088 59.912 50 97 12.912" fill="none" stroke="#505050" stroke-linecap="round" stroke-linejoin="round" stroke-width="6"/></svg></g><g transform="translate(894.86,&#10;                                457.68) rotate(90, 6.831, 6.831)"><svg xmlns="http://www.w3.org/2000/svg" id="Layer_1" data-name="Layer 1" viewBox="0 0 100 100" width="13.662" height="13.662"><polygon points="97 12.912 87.088 3 50 40.088 12.912 3 3 12.912 40.088 50 3 87.088 12.912 97 50 59.912 87.088 97 97 87.088 59.912 50 97 12.912" fill="none" stroke="#505050" stroke-linecap="round" stroke-linejoin="round" stroke-width="6"/></svg></g><g transform="translate(949.51,&#10;                                457.68) rotate(180, 6.831, 6.831)"><svg xmlns="http://www.w3.org/2000/svg" id="Layer_1" data-name="Layer 1" viewBox="0 0 100 100" width="13.662" height="13.662"><polygon points="97 12.912 87.088 3 50 40.088 12.912 3 3 12.912 40.088 50 3 87.088 12.912 97 50 59.912 87.088 97 97 87.088 59.912 50 97 12.912" fill="none" stroke="#FFD7C7" stroke-linecap="round" stroke-linejoin="round" stroke-width="6"/></svg></g><g transform="translate(949.51,&#10;                                512.33) rotate(180, 6.831, 6.831)"><svg xmlns="http://www.w3.org/2000/svg" id="Layer_1" data-name="Layer 1" viewBox="0 0 100 100" width="13.662" height="13.662"><polygon points="97 12.912 87.088 3 50 40.088 12.912 3 3 12.912 40.088 50 3 87.088 12.912 97 50 59.912 87.088 97 97 87.088 59.912 50 97 12.912" fill="none" stroke="#32CD32" stroke-linecap="round" stroke-linejoin="round" stroke-width="6"/></svg></g><g transform="translate(1058.81,&#10;                                512.33) rotate(0, 6.831, 6.831)"><svg xmlns="http://www.w3.org/2000/svg" id="Layer_1" data-name="Layer 1" viewBox="0 0 100 100" width="13.662" height="13.662"><polygon points="97 12.912 87.088 3 50 40.088 12.912 3 3 12.912 40.088 50 3 87.088 12.912 97 50 59.912 87.088 97 97 87.088 59.912 50 97 12.912" fill="none" stroke="#505050" stroke-linecap="round" stroke-linejoin="round" stroke-width="6"/></svg></g></g><g><g transform="translate(20.49,&#10;                                566.97) rotate(90, 6.831, 6.831)"><svg xmlns="http://www.w3.org/2000/svg" id="Layer_1" data-name="Layer 1" viewBox="0 0 100 100" width="13.662" height="13.662"><polygon points="97 12.912 87.088 3 50 40.088 12.912 3 3 12.912 40.088 50 3 87.088 12.912 97 50 59.912 87.088 97 97 87.088 59.912 50 97 12.912" fill="none" stroke="#505050" stroke-linecap="round" stroke-linejoin="round" stroke-width="6"/></svg></g><g transform="translate(75.14,&#10;                                621.62) rotate(270, 6.831, 6.831)"><svg xmlns="http://www.w3.org/2000/svg" id="Layer_1" data-name="Layer 1" viewBox="0 0 100 100" width="13.662" height="13.662"><polygon points="97 12.912 87.088 3 50 40.088 12.912 3 3 12.912 40.088 50 3 87.088 12.912 97 50 59.912 87.088 97 97 87.088 59.912 50 97 12.912" fill="none" stroke="#32CD32" stroke-linecap="round" stroke-linejoin="round" stroke-width="6"/></svg></g><g transform="translate(129.79,&#10;                                566.97) rotate(270, 6.831, 6.831)"><svg xmlns="http://www.w3.org/2000/svg" id="Layer_1" data-name="Layer 1" viewBox="0 0 100 100" width="13.662" height="13.662"><polygon points="97 12.912 87.088 3 50 40.088 12.912 3 3 12.912 40.088 50 3 87.088 12.912 97 50 59.912 87.088 97 97 87.088 59.912 50 97 12.912" fill="none" stroke="#FFD7C7" stroke-linecap="round" stroke-linejoin="round" stroke-width="6"/></svg></g><g transform="translate(184.44,&#10;                                566.97) rotate(0, 6.831, 6.831)"><svg xmlns="http://www.w3.org/2000/svg" id="Layer_1" data-name="Layer 1" viewBox="0 0 100 100" width="13.662" height="13.662"><polygon points="97 12.912 87.088 3 50 40.088 12.912 3 3 12.912 40.088 50 3 87.088 12.912 97 50 59.912 87.088 97 97 87.088 59.912 50 97 12.912" fill="none" stroke="#FFD7C7" stroke-linecap="round" stroke-linejoin="round" stroke-width="6"/></svg></g><g transform="translate(184.44,&#10;                                621.62) rotate(0, 6.831, 6.831)"><svg xmlns="http://www.w3.org/2000/svg" id="Layer_1" data-name="Layer 1" viewBox="0 0 100 100" width="13.662" height="13.662"><polygon points="97 12.912 87.088 3 50 40.088 12.912 3 3 12.912 40.088 50 3 87.088 12.912 97 50 59.912 87.088 97 97 87.088 59.912 50 97 12.912" fill="none" stroke="#505050" stroke-linecap="round" stroke-linejoin="round" stroke-width="6"/></svg></g><g transform="translate(239.09,&#10;                                566.97) rotate(270, 6.831, 6.831)"><svg xmlns="http://www.w3.org/2000/svg" id="Layer_1" data-name="Layer 1" viewBox="0 0 100 100" width="13.662" height="13.662"><polygon points="97 12.912 87.088 3 50 40.088 12.912 3 3 12.912 40.088 50 3 87.088 12.912 97 50 59.912 87.088 97 97 87.088 59.912 50 97 12.912" fill="none" stroke="#FFD7C7" stroke-linecap="round" stroke-linejoin="round" stroke-width="6"/></svg></g><g transform="translate(239.09,&#10;                                621.62) rotate(0, 6.831, 6.831)"><svg xmlns="http://www.w3.org/2000/svg" id="Layer_1" data-name="Layer 1" viewBox="0 0 100 100" width="13.662" height="13.662"><polygon points="97 12.912 87.088 3 50 40.088 12.912 3 3 12.912 40.088 50 3 87.088 12.912 97 50 59.912 87.088 97 97 87.088 59.912 50 97 12.912" fill="none" stroke="#CB2138" stroke-linecap="round" stroke-linejoin="round" stroke-width="6"/></svg></g><g transform="translate(293.73,&#10;                                621.62) rotate(90, 6.831, 6.831)"><svg xmlns="http://www.w3.org/2000/svg" id="Layer_1" data-name="Layer 1" viewBox="0 0 100 100" width="13.662" height="13.662"><polygon points="97 12.912 87.088 3 50 40.088 12.912 3 3 12.912 40.088 50 3 87.088 12.912 97 50 59.912 87.088 97 97 87.088 59.912 50 97 12.912" fill="none" stroke="#32CD32" stroke-linecap="round" stroke-linejoin="round" stroke-width="6"/></svg></g><g transform="translate(348.38,&#10;                                566.97) rotate(270, 6.831, 6.831)"><svg xmlns="http://www.w3.org/2000/svg" id="Layer_1" data-name="Layer 1" viewBox="0 0 100 100" width="13.662" height="13.662"><polygon points="97 12.912 87.088 3 50 40.088 12.912 3 3 12.912 40.088 50 3 87.088 12.912 97 50 59.912 87.088 97 97 87.088 59.912 50 97 12.912" fill="none" stroke="#FFD7C7" stroke-linecap="round" stroke-linejoin="round" stroke-width="6"/></svg></g><g transform="translate(403.03,&#10;                                621.62) rotate(180, 6.831, 6.831)"><svg xmlns="http://www.w3.org/2000/svg" id="Layer_1" data-name="Layer 1" viewBox="0 0 100 100" width="13.662" height="13.662"><polygon points="97 12.912 87.088 3 50 40.088 12.912 3 3 12.912 40.088 50 3 87.088 12.912 97 50 59.912 87.088 97 97 87.088 59.912 50 97 12.912" fill="none" stroke="#FFD7C7" stroke-linecap="round" stroke-linejoin="round" stroke-width="6"/></svg></g><g transform="translate(457.68,&#10;                                566.97) rotate(0, 6.831, 6.831)"><svg xmlns="http://www.w3.org/2000/svg" id="Layer_1" data-name="Layer 1" viewBox="0 0 100 100" width="13.662" height="13.662"><polygon points="97 12.912 87.088 3 50 40.088 12.912 3 3 12.912 40.088 50 3 87.088 12.912 97 50 59.912 87.088 97 97 87.088 59.912 50 97 12.912" fill="none" stroke="#505050" stroke-linecap="round" stroke-linejoin="round" stroke-width="6"/></svg></g><g transform="translate(512.33,&#10;                                621.62) rotate(270, 6.831, 6.831)"><svg xmlns="http://www.w3.org/2000/svg" id="Layer_1" data-name="Layer 1" viewBox="0 0 100 100" width="13.662" height="13.662"><polygon points="97 12.912 87.088 3 50 40.088 12.912 3 3 12.912 40.088 50 3 87.088 12.912 97 50 59.912 87.088 97 97 87.088 59.912 50 97 12.912" fill="none" stroke="#32CD32" stroke-linecap="round" stroke-linejoin="round" stroke-width="6"/></svg></g><g transform="translate(566.97,&#10;                                566.97) rotate(90, 6.831, 6.831)"><svg xmlns="http://www.w3.org/2000/svg" id="Layer_1" data-name="Layer 1" viewBox="0 0 100 100" width="13.662" height="13.662"><polygon points="97 12.912 87.088 3 50 40.088 12.912 3 3 12.912 40.088 50 3 87.088 12.912 97 50 59.912 87.088 97 97 87.088 59.912 50 97 12.912" fill="none" stroke="#505050" stroke-linecap="round" stroke-linejoin="round" stroke-width="6"/></svg></g><g transform="translate(621.62,&#10;                                621.62) rotate(270, 6.831, 6.831)"><svg xmlns="http://www.w3.org/2000/svg" id="Layer_1" data-name="Layer 1" viewBox="0 0 100 100" width="13.662" height="13.662"><polygon points="97 12.912 87.088 3 50 40.088 12.912 3 3 12.912 40.088 50 3 87.088 12.912 97 50 59.912 87.088 97 97 87.088 59.912 50 97 12.912" fill="none" stroke="#505050" stroke-linecap="round" stroke-linejoin="round" stroke-width="6"/></svg></g><g transform="translate(676.27,&#10;                                566.97) rotate(180, 6.831, 6.831)"><svg xmlns="http://www.w3.org/2000/svg" id="Layer_1" data-name="Layer 1" viewBox="0 0 100 100" width="13.662" height="13.662"><polygon points="97 12.912 87.088 3 50 40.088 12.912 3 3 12.912 40.088 50 3 87.088 12.912 97 50 59.912 87.088 97 97 87.088 59.912 50 97 12.912" fill="none" stroke="#505050" stroke-linecap="round" stroke-linejoin="round" stroke-width="6"/></svg></g><g transform="translate(730.92,&#10;                                621.62) rotate(270, 6.831, 6.831)"><svg xmlns="http://www.w3.org/2000/svg" id="Layer_1" data-name="Layer 1" viewBox="0 0 100 100" width="13.662" height="13.662"><polygon points="97 12.912 87.088 3 50 40.088 12.912 3 3 12.912 40.088 50 3 87.088 12.912 97 50 59.912 87.088 97 97 87.088 59.912 50 97 12.912" fill="none" stroke="#505050" stroke-linecap="round" stroke-linejoin="round" stroke-width="6"/></svg></g><g transform="translate(840.21,&#10;                                621.62) rotate(90, 6.831, 6.831)"><svg xmlns="http://www.w3.org/2000/svg" id="Layer_1" data-name="Layer 1" viewBox="0 0 100 100" width="13.662" height="13.662"><polygon points="97 12.912 87.088 3 50 40.088 12.912 3 3 12.912 40.088 50 3 87.088 12.912 97 50 59.912 87.088 97 97 87.088 59.912 50 97 12.912" fill="none" stroke="#32CD32" stroke-linecap="round" stroke-linejoin="round" stroke-width="6"/></svg></g><g transform="translate(894.86,&#10;                                566.97) rotate(180, 6.831, 6.831)"><svg xmlns="http://www.w3.org/2000/svg" id="Layer_1" data-name="Layer 1" viewBox="0 0 100 100" width="13.662" height="13.662"><polygon points="97 12.912 87.088 3 50 40.088 12.912 3 3 12.912 40.088 50 3 87.088 12.912 97 50 59.912 87.088 97 97 87.088 59.912 50 97 12.912" fill="none" stroke="#FFD7C7" stroke-linecap="round" stroke-linejoin="round" stroke-width="6"/></svg></g><g transform="translate(949.51,&#10;                                621.62) rotate(0, 6.831, 6.831)"><svg xmlns="http://www.w3.org/2000/svg" id="Layer_1" data-name="Layer 1" viewBox="0 0 100 100" width="13.662" height="13.662"><polygon points="97 12.912 87.088 3 50 40.088 12.912 3 3 12.912 40.088 50 3 87.088 12.912 97 50 59.912 87.088 97 97 87.088 59.912 50 97 12.912" fill="none" stroke="#FFD7C7" stroke-linecap="round" stroke-linejoin="round" stroke-width="6"/></svg></g><g transform="translate(1004.16,&#10;                                566.97) rotate(90, 6.831, 6.831)"><svg xmlns="http://www.w3.org/2000/svg" id="Layer_1" data-name="Layer 1" viewBox="0 0 100 100" width="13.662" height="13.662"><polygon points="97 12.912 87.088 3 50 40.088 12.912 3 3 12.912 40.088 50 3 87.088 12.912 97 50 59.912 87.088 97 97 87.088 59.912 50 97 12.912" fill="none" stroke="#505050" stroke-linecap="round" stroke-linejoin="round" stroke-width="6"/></svg></g><g transform="translate(1004.16,&#10;                                621.62) rotate(180, 6.831, 6.831)"><svg xmlns="http://www.w3.org/2000/svg" id="Layer_1" data-name="Layer 1" viewBox="0 0 100 100" width="13.662" height="13.662"><polygon points="97 12.912 87.088 3 50 40.088 12.912 3 3 12.912 40.088 50 3 87.088 12.912 97 50 59.912 87.088 97 97 87.088 59.912 50 97 12.912" fill="none" stroke="#CB2138" stroke-linecap="round" stroke-linejoin="round" stroke-width="6"/></svg></g><g transform="translate(1058.81,&#10;                                621.62) rotate(90, 6.831, 6.831)"><svg xmlns="http://www.w3.org/2000/svg" id="Layer_1" data-name="Layer 1" viewBox="0 0 100 100" width="13.662" height="13.662"><polygon points="97 12.912 87.088 3 50 40.088 12.912 3 3 12.912 40.088 50 3 87.088 12.912 97 50 59.912 87.088 97 97 87.088 59.912 50 97 12.912" fill="none" stroke="#505050" stroke-linecap="round" stroke-linejoin="round" stroke-width="6"/></svg></g></g></svg>