<svg xmlns="http://www.w3.org/2000/svg" xmlns:xlink="http://www.w3.org/1999/xlink" height="100%" width="100%" version="1.1" id="UCLan_Logo_By_LIMARKDL" x="0px" y="0px" viewBox="0 0 841.9 311.8" style="enable-background:new 0 0 841.9 311.8;--shield: #007fb0;--inside-bottom: #ffffff;--flower: #be1622;--inside-up: #007fb0;--year: #ffffff;--text: #ffffff" xml:space="preserve">
<style xmlns="http://www.w3.org/2000/svg" type="text/css">
	.st0{fill: var(--shield);}
	.st1{fill: var(--inside-bottom);}
	.st2{fill: var(--flower);}
	.st3{fill: var(--inside-up);}
    .st4{fill: var(--year)}
    .st5{fill: var(--text)}
</style>
<path id="UCLan_Logo_svg__Shield_1_" class="st0" d="M129.4,39.6h3.5v52.1h-3.5V39.6z M103.3,45.5c1-0.5,2.1-0.9,3.2-1.3  c6.7,16,13.3,32,19.9,48.1c-1.1,0.5-2.1,0.9-3.2,1.3C116.7,77.6,110,61.5,103.3,45.5z M135.9,92.3c6.6-16,13.3-32.1,19.9-48.1  l3.2,1.3c-6.6,16-13.3,32.1-19.9,48.1L135.9,92.3z M81.5,61c0.8-0.8,1.6-1.7,2.5-2.5l36.8,36.8l-2.5,2.4C118.3,97.7,81.5,61,81.5,61  z M141.6,95.3l36.8-36.8l2.4,2.4L144,97.7C144,97.7,141.6,95.3,141.6,95.3z M68.5,80.3c16,6.6,32.1,13.3,48.1,19.9  c-0.4,1-0.9,2.1-1.3,3.2c-16-6.7-32-13.3-48.1-19.9C67.7,82.5,68.1,81.4,68.5,80.3z M145.7,100.3c16-6.7,32-13.3,48.1-19.9  c0.4,1.1,0.9,2.1,1.3,3.2c-16,6.7-32,13.3-48.1,19.9C146.6,102.4,146.2,101.3,145.7,100.3z M143.7,107.5c-3.8,0-7.5,1.5-10.1,4.3  l-3.3,3.6c-1.2-1.4-2.4-2.7-3.6-4c-2.5-2.6-6.1-4-9.7-4H62.4v96.2c0.4,3.3,0,6.7,0.6,10c1.3,8.1,5.6,15.3,10.5,21.7  c8,10.1,18,18.5,28.3,26.2c8.4,6.2,17.1,11.8,26.2,17c0.7,0.4,1.4,0.7,2.1,0.9c1-0.2,2-0.6,2.9-1.2c12.8-7.2,25-15.6,36.3-25  c8.7-7.4,16.9-15.6,22.7-25.4c3.3-5.6,5.7-11.8,5.9-18.3v-102C197.9,107.5,143.7,107.5,143.7,107.5z"/>
<g id="UCLan_Logo_svg__ShieldInside" class="st1">
<path d="M130.2 157.7c-21 12.1-42 24.2-63.1 36.2v14.9c.2 9.2 5.3 17.4 10.9 24.4 5.4 6.4 11.4 12.3 17.9 17.5 10.7 8.7 22.2 16.5 34.2 23.3 15.3-8.6 30-18.6 42.8-30.7 5.8-5.4 10.9-11.6 15.1-18.4 2.9-5 5.2-10.7 5.2-16.6v-14.6c-21-11.8-42-23.9-63-36z"/><path d="M126.4 177.9c1.2-1.3 2.4-2.6 3.7-3.9 1.2 1.2 2.4 2.6 3.7 3.8-1.4 2-2.6 4.1-3.7 6.3-1-2.2-2.2-4.2-3.7-6.2zm-9.7 4.8c2.1-2 5.6-2.7 8.1-1 2.5 1.7 3.8 4.9 3.7 7.9-.2 3.5-.3 7.1-.4 10.6-4.6.7-8.6 3.7-10.8 7.8-3.4-1-6.8-1.9-10.2-2.9-2.9-.8-5.6-2.9-6.4-6-.6-2.4.2-4.9 2.1-6.5 2.8-2.4 6.8-2.4 10.3-1.9.4-2.7 1.3-5.8 3.6-8zm19.4-1.3c2.4-1.1 5.3-.7 7.3 1 2.4 2.1 3.5 5.4 4 8.6 3-.6 6-.3 8.8.9 2.7 1.3 4.2 4.3 3.7 7.2-.7 3.1-3.5 5.3-6.4 6.2-3.4 1-6.9 1.9-10.3 2.9-2.1-4.2-6.1-7.1-10.8-7.9-.1-3.7-.3-7.3-.4-11-.1-3.1 1.2-6.4 4.1-7.9zM91.6 202c1.6-.8 3.2-1.5 4.8-2.3 1.5 2 3.1 3.8 4.9 5.5-2.4.3-4.8.8-7.1 1.5-.9-1.6-1.7-3.1-2.6-4.7zm67.5 3.1c1.8-1.6 3.4-3.5 4.9-5.4 1.6.8 3.2 1.5 4.8 2.3-.8 1.6-1.7 3.2-2.6 4.7-2.3-.8-4.7-1.3-7.1-1.6zm-31.9-1.6c3.4-.9 7-.2 9.8 1.8 5.1 3.7 6.3 11 2.5 16.1-3.7 5.1-11 6.3-16.1 2.5-5.1-3.8-6.3-11-2.5-16.1 1.5-2.1 3.7-3.7 6.3-4.3zm-30.3 6.4c2.4-2.3 6.1-2.4 9.1-1.4 3.3 1.2 6.7 2.4 10 3.7-.7 4.7.8 9.4 4.1 12.7-2 2.9-3.9 5.9-5.8 8.8-1.6 2.5-4.2 4.1-7.1 4.3-2.6.1-5-1.5-6-4-1.4-3.4-.3-7.3 1.4-10.4-2.8-1.4-5.5-3.4-6.8-6.3-1.2-2.4-1-5.6 1.1-7.4zm57.6-1.4c3-1 6.7-.8 9.1 1.5 1.7 1.8 2.3 4.5 1.4 6.8-1.2 3.2-4.1 5.4-7 6.8 1.5 2.6 2.2 5.6 1.9 8.6-.4 2.9-2.7 5.6-5.8 5.8-3.2.3-6.2-1.7-7.9-4.3-2-2.9-3.9-5.8-5.9-8.8 3.3-3.3 4.9-8.1 4.2-12.7 3.3-1.2 6.6-2.5 10-3.7zM117 235.7c2.2-2.8 4.4-5.5 6.6-8.3 4.2 2.2 9.2 2.2 13.4 0 2.2 2.8 4.4 5.5 6.6 8.3 2 2.5 2.9 6.1 1.5 9.1-1.2 2.8-4.6 3.9-7.4 3.4-2.8-.7-5.3-2.2-7.3-4.4-2.2 2.2-4.9 4.1-8 4.5-2.6.2-5.6-1-6.7-3.5-1.7-3-.7-6.6 1.3-9.1zm-11.4 6.4c2.3-.7 4.6-1.7 6.7-2.9-.5 2.4-.8 4.8-.7 7.2-1.8.4-3.5.7-5.3 1-.2-1.8-.5-3.6-.7-5.3zm42.5-3c2.1 1.2 4.4 2.2 6.7 2.9-.2 1.8-.4 3.5-.7 5.3-1.7-.3-3.5-.6-5.2-.9-.1-2.4-.3-4.9-.8-7.3z" style="fill: var(--flower);"/></g>
<path class="st3" d="M144,112.2c-4,0-7.4,2-10.1,5.3c-1.2,1.4-2.6,2.8-3.8,4.2c-1.3-1.7-2.8-3.2-4-4.8c-2.6-3.1-6.4-4.8-10.2-4.8  H67.1v76.7l63.3-35.7l62.8,35.9v-76.8C193.2,112.1,144,112.2,144,112.2z"/>
<g xmlns="http://www.w3.org/2000/svg" id="UCLan_Logo_svg__Nums" class="st4">
	<path d="M122.6,132.6c3.2-1,4.6-5.1,3-8c-2.4-4.4-9.9-4.3-12.1,0.2c-1.5,2.8-0.1,6.8,3.1,7.8c-3.8,0.8-5.4,5.6-3.8,9   c2.5,5.2,11.5,5.1,13.7-0.3C127.9,138,126.3,133.4,122.6,132.6z M118,123.6c0.5-0.2,1.1-0.3,1.6-0.3c2.1-0.1,4.3,1.6,4.1,3.9   c0.1,2.2-2,3.7-4.1,3.6c-0.7,0-1.5-0.1-2.1-0.5C115.2,128.8,115.3,124.6,118,123.6z M124,139.9c-0.1,0.3-0.2,0.5-0.4,0.8   c-0.4,0.8-1.1,1.4-1.9,1.8c-0.3,0.1-0.6,0.3-0.9,0.3c-2.4,0.7-4.9-0.7-5.6-3.2c-0.1-0.3-0.2-0.6-0.2-1c0-0.3,0-0.7,0.1-1   c0.2-0.9,0.5-1.7,1.1-2.4c0.6-0.6,1.3-1.1,2.2-1.3c0.3-0.1,0.6-0.1,0.9-0.2c2.1-0.2,4.1,1.2,4.7,3.4c0.1,0.3,0.1,0.6,0.2,0.9   C124.3,138.7,124.2,139.3,124,139.9z"/>
	<path d="M97.8,126.8c0.6,0.7,1.2,1.4,1.7,2.1c1.4-1.2,2.8-2.3,4.2-3.5V145h2.8v-23.2H104C102,123.5,99.8,125.1,97.8,126.8z"/>
	<path d="M142.3,134.4c2-1.7,3.1-4.2,3-6.8c-0.1-2.4-1.6-4.6-3.9-5.4c-2.5-1.2-5.4-0.9-7.8,0.6c-1.4,1.1-2.4,2.7-2.7,4.5l3,0.3   c0.3-1,0.8-1.8,1.4-2.5c2-2,6-1.3,6.9,1.4c0.7,2-0.3,4.2-1.8,5.6c-3.3,3.3-6.7,6.5-10,9.9v3.1h15.1v-2.6h-11.8   C136.6,139.8,139.5,137.1,142.3,134.4z"/>
	<path d="M159.5,132.6c2.9-1.1,4.4-4.3,3.3-7.1c-0.1-0.2-0.1-0.4-0.2-0.5c-2.1-4.7-9.7-4.8-12.1-0.3c-1.6,2.9-0.2,7,3,8   c-1.1,0.2-2.1,0.8-2.9,1.6c-2.6,2.9-2,8.1,1.5,10c3.5,1.9,8.2,1.5,10.6-1.8C165.1,139.2,163.7,133.5,159.5,132.6z M152.6,127.3   c-0.2-1.6,0.7-3,2.1-3.6c0.6-0.3,1.2-0.4,1.8-0.3c1.6-0.1,3.1,0.7,3.8,2.2c0.1,0.1,0.1,0.3,0.2,0.4c0.8,2.3-1,5.1-3.5,4.9   c0,0,0,0,0,0c-0.2,0-0.3,0-0.5,0C154.4,131,152.6,129.4,152.6,127.3z M160.2,141c-0.6,0.8-1.5,1.5-2.6,1.8   c-2.4,0.7-4.9-0.7-5.6-3.2c-0.2-0.6-0.2-1.3-0.1-1.9c0.2-0.9,0.6-1.8,1.2-2.4c0.6-0.9,1.5-1.5,2.5-1.8c2.4-0.7,4.9,0.7,5.6,3.2   C161.7,138.3,161.2,139.9,160.2,141z"/>
</g>
<path id="UCLan_Logo_svg__Name" class="st5" d="M604.5,99.5c3.4-0.8,6.8-0.8,10.2-0.1c-0.2,2.4-0.4,4.7-0.6,7.1  c-2.2-0.5-4.8-1-6.8,0.5c-1.4,1-1.8,2.8-1.8,4.5c-0.1,2.4,0,4.8,0,7.2h7.5v7h-7.5v25.8h-8.3v-25.8h-6.8v-7h6.8  c0.1-4.4-0.3-9,1.1-13.3C599.3,102.4,601.6,100.3,604.5,99.5z M314.2,102.7c2.8-0.8,6.2,0.9,6.7,3.9c0.5,2.7-1.3,5.3-4.1,5.8h-0.2  c-2.8,0.6-5.5-1.2-6.1-3.9C310,105.8,311.6,103.3,314.2,102.7z M460.9,102.7c3-0.9,6.8,1.3,6.8,4.6c0.2,3.1-2.9,5.5-5.9,5.1  c-2.7-0.1-4.9-2.4-4.8-5.1C457.1,105.1,458.7,103.2,460.9,102.7z M225.2,102.9h8.7v29.9c-0.2,3.4,1.1,6.6,3.6,8.9s6,2.8,9.3,2.4  c2.9-0.4,5.4-2,7-4.4c1.2-2,1.8-4.3,1.8-6.6v-30.2h8.6v31.4c0,5.5-2.5,10.8-6.9,14.2c-3.8,2.8-8.4,4.2-13.1,4c-4.9,0-9.6-1.8-13.2-5  c-3.6-3.4-5.7-8.2-5.7-13.3C225.2,123.9,225.2,113.4,225.2,102.9L225.2,102.9z M478.1,109.1h8.3v9.5h9v7h-9v14.7  c0.1,1.7,0.5,3.8,2.3,4.4c2.3,0.6,4.7,0.4,6.8-0.7v7c-3.3,1.1-6.8,1.3-10.2,0.8c-2.3-0.3-4.4-1.6-5.7-3.6c-1-2.1-1.5-4.4-1.4-6.8  v-15.9h-6.8v-7h6.8L478.1,109.1L478.1,109.1z M287.6,118.1c4.1-0.9,9-0.3,12.1,2.9c2.7,2.6,3.3,6.4,3.4,10v20.5h-8.4V133  c-0.1-2.6-0.8-5.7-3.2-7.1c-3-1.3-6.6-0.4-8.6,2.2c-1,1.6-1.6,3.4-1.5,5.3v18.1h-8.3v-32.8h7.8v5.3  C282.3,121.2,284.6,118.8,287.6,118.1z M364.9,123.6c3.6-4.1,9.2-6.1,14.6-5.9c3.5,0.1,6.9,1.4,9.5,3.8c2.7,2.7,4.4,6.2,4.9,10  c0.2,2.1,0.3,4.2,0.2,6.3h-25c0.2,2.4,1.5,4.6,3.5,6.1c2.7,1.7,6,2.1,8.9,1c2-0.9,3.8-2.2,5.2-3.9c2,1.5,4,3,5.9,4.5  c-6.3,8.5-20.3,8.8-27.4,1.1C359.5,140.5,359.3,129.9,364.9,123.6L364.9,123.6z M373.6,124.7c-2.6,1.2-4,4.1-4.5,6.9h16.7  c0.1-2.5-1.2-4.9-3.2-6.4C379.8,123.7,376.5,123.5,373.6,124.7z M409.4,123.7c2.3-4.7,7.7-7.1,12.7-5.5v8c-2.9-0.8-6.4-1-9,0.7  c-2.3,1.6-3.7,4.2-3.7,7v17.4H401v-32.8h8.4C409.4,118.5,409.4,123.7,409.4,123.7z M431,119.7c2.8-1.5,5.9-2.2,9-2  c4.1,0.2,8.5,1.5,11,5c-1.8,1.7-3.7,3.3-5.6,5c-2.1-3.1-6.7-4.4-9.9-2.3c-1.5,0.9-1.8,3.6-0.1,4.5c2.1,1.1,4.6,1.5,6.9,2  c3,0.6,6.2,1.8,8.2,4.4c1.5,2,1.6,4.7,1.4,7.1c-0.6,3.3-2.9,6.1-6,7.3c-4.1,1.6-8.7,2-13,1c-3.1-0.6-5.9-2.2-7.9-4.6  c1.9-1.7,3.7-3.4,5.5-5.2c1.6,1.7,3.5,3.5,5.9,3.9c2.2,0.4,4.7,0.2,6.4-1.5c1.2-1.1,1.2-2.9,0.1-4.1c-0.1-0.1-0.2-0.2-0.3-0.2  c-4.4-2.9-10.5-1.7-14.4-5.5c-2.1-1.9-2.5-4.9-2.2-7.6C426.6,123.8,428.4,121.1,431,119.7L431,119.7z M567.2,117.8  c6.1-0.8,12.8,1.3,16.6,6.2c5.4,6.7,4.8,17.6-1.6,23.5c-5.6,5.1-14.4,6-21.2,2.7c-8.5-4.5-11.7-15-7.2-23.5c1.4-2.6,3.4-4.8,5.8-6.4  C561.9,119,564.5,118.1,567.2,117.8L567.2,117.8z M566.9,125.5c-1.7,0.5-3.2,1.4-4.4,2.8c-3.5,4.1-3.2,10.3,0.7,14.1  c3.6,3.1,9,3.1,12.7,0c4.1-3.8,4.3-10.3,0.5-14.4l-0.2-0.2C573.8,125.4,570.2,124.5,566.9,125.5z M311.5,118.6h8.3v32.8h-8.3  L311.5,118.6L311.5,118.6z M324.4,118.6h9.1c2.9,7.6,5.8,15.3,8.7,22.9c3-7.6,5.9-15.3,8.8-22.9h8.5c-4.3,10.9-8.6,21.9-12.9,32.8  h-8.9C333.3,140.4,328.8,129.5,324.4,118.6L324.4,118.6z M458.2,118.6h8.3v32.8h-8.3V118.6L458.2,118.6z M498.5,118.6h9.1  c3.1,7.6,6.1,15.1,9.2,22.7c2.7-7.6,5.5-15.1,8.2-22.7h8.7c-4.6,11.9-9.3,23.8-13.9,35.7c-1.4,3.3-2.3,6.8-4.6,9.6  c-1.6,2-4,3.3-6.5,3.6c-3.1,0.4-6.3,0.2-9.4-0.6c0.4-2.5,0.7-5,1-7.5c2.8,0.9,6.3,1.5,8.7-0.5c1.8-2.1,2.4-4.9,3.5-7.3  C507.8,140.6,503.1,129.6,498.5,118.6L498.5,118.6z M436.5,165.3h8.3V217h-8.3V165.3z M684.7,165.3h8.3v23.4c1.4-2.7,4-4.6,7.1-5.2  c3.8-0.6,8-0.1,10.9,2.6c2.8,2.5,3.7,6.3,3.8,9.9v21h-8.3v-17.7c-0.1-2.8-0.5-6.3-3.1-7.9c-2.8-1.3-6.1-0.7-8.3,1.5  c-1.4,1.7-2.1,3.8-2,6v18h-8.4C684.7,216.9,684.7,165.3,684.7,165.3z M240.4,168.4c5.2-1.5,10.8-1.4,16,0.3c3.5,1.3,6.6,3.5,8.9,6.4  c-2.2,1.6-4.5,3.3-6.8,5c-1.8-2-4-3.5-6.6-4.3c-5.7-1.4-11.7,0.4-15.7,4.7c-5.9,6.6-5.9,17.6-0.2,24.4c3.7,4.3,9.4,6.3,15,5.2  c3.3-0.9,6.2-2.8,8.2-5.6l7.2,5.1c-3.1,4.3-7.7,7.2-12.9,8.2c-7.3,1.5-14.9-0.1-21.1-4.4c-5.3-4-8.7-10-9.4-16.5  c-0.9-6.3,0.4-12.7,3.6-18.2C229.7,173.5,234.7,169.9,240.4,168.4L240.4,168.4z M725.2,168.4c3-1.2,7,0.5,7.4,3.9  c0.6,3.1-2.3,5.9-5.3,5.7c-2.7,0.2-5.1-1.9-5.3-4.6C721.9,171.2,723.2,169.2,725.2,168.4L725.2,168.4z M475.1,168.6h8.7v40.5h20.5  v7.9h-29.2V168.6z M350.7,174.7h8.3v9.4h9v7h-9v14.7c0,1.8,0.6,4.1,2.6,4.6c2.2,0.5,4.5,0.2,6.5-0.8v7c-2.7,1.1-5.6,1.1-8.5,1  c-2.5-0.1-5.1-0.9-6.8-2.9s-1.9-4.9-2-7.5V191H344v-7h6.8C350.7,180.9,350.7,177.8,350.7,174.7z M272.6,190  c3.5-4.3,8.8-6.8,14.3-6.6c4.1-0.2,8.1,1.4,11,4.4c3.9,4.2,4.7,10.2,4.5,15.8h-25c0.2,2.3,1.4,4.5,3.3,6c2.8,1.9,6.3,2.3,9.5,1  c1.9-0.9,3.5-2.2,4.9-3.8c2,1.5,4,3,5.9,4.5c-3.3,4.2-8.3,6.7-13.6,6.6c-9.5,0.6-17.7-6.6-18.3-16.1  C268.8,197.4,270.1,193.3,272.6,190L272.6,190z M282.6,190.1c-3,1-4.7,4.1-5.1,7.1h16.7c0-2.2-0.9-4.4-2.6-5.9  C289,189.4,285.6,189,282.6,190.1L282.6,190.1z M324.5,183.6c3.3-0.5,7-0.4,9.9,1.6c2.2,1.4,3.7,3.6,4.4,6.1  c0.6,2.8,0.9,5.7,0.7,8.6v17.2h-8.3v-16.8c-0.1-2.9-0.1-6.2-2.5-8.3c-2.8-2.2-7.5-1.2-9.5,1.7c-1,1.6-1.5,3.5-1.5,5.4v18h-8.3v-32.9  h7.9v5.2C318.8,186.4,321.4,184.3,324.5,183.6L324.5,183.6z M387.4,184.4c2.5-1.1,5.3-1.4,7.9-0.6v8.1c-3-0.9-6.7-1.1-9.3,0.9  c-2.2,1.6-3.5,4.2-3.5,7V217h-8.3v-32.9h8.3v5.3C383.5,187.2,385.2,185.4,387.4,184.4L387.4,184.4z M400,188.6  c3.7-3.8,9.2-5.4,14.4-5.2c3.6,0,7.4,0.9,10.1,3.3s3.4,6.3,3.5,9.8v20.6h-7.5v-4.6c-1.3,2.1-3.3,3.7-5.6,4.6  c-4,1.4-8.3,1.1-12.1-0.8c-3.1-1.5-5-4.6-5-8.1c-0.2-3,1.1-5.9,3.4-7.8c2.7-2.1,6.1-2.9,9.5-3.4c3.3-0.3,6.5-0.5,9.8-0.4  c0.1-2.2-0.6-4.7-2.8-5.8c-4.4-2.3-10-1-13.5,2.3C402.9,191.5,401.5,190,400,188.6L400,188.6z M408,204.2c-1.7,1-2.3,3.2-1.3,4.8  c0,0.1,0.1,0.1,0.1,0.2c1.2,1.5,3.1,2.4,5,2.3c2.4,0,5.1-0.5,6.7-2.5s1.7-4.4,1.7-6.8C416.1,202.4,411.7,202.1,408,204.2L408,204.2z   M510,188.6c3.5-3.6,8.6-5.2,13.5-5.2c3.8-0.1,7.8,0.6,10.8,3c2.6,2.2,3.6,5.8,3.8,9.1c0.1,7.2,0,14.4,0.1,21.5h-7.4v-4.6  c-1.2,2-3.1,3.5-5.2,4.4c-3.6,1.4-7.7,1.3-11.3-0.1c-3.1-1.1-5.4-3.8-6-7.1c-0.4-2.3,0-4.7,1.1-6.8c1.5-2.4,3.8-4.1,6.5-4.8  c4.8-1.6,9.9-1.5,14.9-1.5c0.1-1.4-0.2-2.8-0.9-4.1c-1.2-1.6-3.1-2.6-5.1-2.8c-3.7-0.5-7.5,0.8-10.3,3.4  C512.9,191.5,511.5,190,510,188.6L510,188.6z M520.4,203.1c-1.4,0.4-2.7,1.2-3.7,2.3c-0.8,1.3-0.6,3,0.3,4.1  c1.3,1.3,3.1,2.1,4.9,1.9c2.3,0,4.9-0.5,6.4-2.4c1.6-1.8,1.8-4.5,1.8-6.9C526.9,202.1,523.6,202.4,520.4,203.1L520.4,203.1z   M561.4,183.6c3.7-0.6,7.8-0.3,10.8,2.1c3,2.4,4.1,6.3,4.2,10c0.1,7.1,0,14.2,0,21.3h-8.3c-0.1-6.1,0.1-12.2-0.1-18.3  c-0.1-2.7-0.7-6-3.4-7.4c-3.2-1.3-6.8-0.2-8.7,2.7c-1.2,2-1.3,4.3-1.3,6.6v16.5h-8.3v-32.9h7.9v5.2  C555.7,186.4,558.3,184.3,561.4,183.6L561.4,183.6z M592.4,185.1c6.6-3.2,15.4-2.5,20.5,3.1c-1.9,1.9-3.9,3.8-5.8,5.8  c-1.5-1.5-3.3-3-5.4-3.3c-3.6-0.4-7.1,1.4-9,4.5c-2.5,4.2-1.5,10.2,2.5,13.1c3.5,2.8,9.3,2.5,12.1-1.3c1.8,2,3.7,4,5.5,5.9  c-5.8,5.5-15.5,6-22.2,1.8c-5.4-3.3-8.2-10-7.5-16.2C583.6,192.8,587.2,187.7,592.4,185.1L592.4,185.1z M617.9,188.6  c3-3.2,7.3-4.8,11.6-5.2c4-0.3,8.4,0,11.8,2.3c2.1,1.5,3.6,3.8,4.1,6.4c0.7,3.1,0.4,6.3,0.5,9.5v15.3h-7.4v-4.6  c-1.2,1.9-3,3.4-5.1,4.3c-3.6,1.4-7.5,1.4-11.1,0.1c-3-1-5.3-3.4-6.2-6.5c-0.7-2.8-0.2-5.8,1.5-8.3c1.6-2,3.8-3.5,6.3-4.1  c4.7-1.5,9.7-1.4,14.6-1.4c0.5-3.3-1.8-6.3-5.1-6.8c-0.3,0-0.5-0.1-0.8-0.1c-3.8-0.5-7.6,0.8-10.4,3.3L617.9,188.6L617.9,188.6z   M625.7,204.3c-1.7,1-2.2,3.2-1.1,4.9c0.1,0.2,0.2,0.3,0.3,0.4c1.5,1.7,4,2,6.1,1.9c2.2,0,4.2-1,5.6-2.7c1.4-1.8,1.5-4.2,1.4-6.4  C633.9,202.3,629.4,202.1,625.7,204.3L625.7,204.3z M654.5,187.9c2.5-3.3,6.8-4.5,10.8-4.6c4.5-0.1,9.5,1.2,12.3,5  c-1.8,1.7-3.7,3.4-5.6,5c-1.6-2.3-4.3-3.6-7.1-3.3c-1.4,0.1-2.6,0.7-3.6,1.7c-0.9,1.2-0.6,2.8,0.5,3.7c0.1,0,0.1,0.1,0.2,0.1  c2.1,0.9,4.3,1.6,6.6,2c3,0.6,6.1,1.7,8,4.1c1.8,2,1.9,4.9,1.7,7.4c-0.5,3.4-2.8,6.2-6,7.4c-3.9,1.5-8.2,1.9-12.4,1.1  c-3.3-0.5-6.4-2.2-8.5-4.7c1.8-1.8,3.7-3.5,5.5-5.2c1.7,1.9,3.8,3.7,6.4,4c2.2,0.3,4.7-0.1,6.1-1.8c1-1.3,0.8-3.2-0.5-4.2  c-0.1-0.1-0.3-0.2-0.5-0.3c-3.5-1.9-7.7-1.6-11.3-3.4c-2.2-0.9-3.9-2.9-4.5-5.2C652,193.6,652.6,190.4,654.5,187.9L654.5,187.9z   M748.6,189.2c2.3-4.7,7.7-7,12.7-5.5v8c-2.9-0.8-6.3-1-8.9,0.7c-2.4,1.5-3.8,4.1-3.8,6.9v17.6h-8.4V184h8.4  C748.5,185.8,748.5,187.5,748.6,189.2z M767.6,190.4c3.2-4.7,9-7.2,14.6-7.1c4.7-0.2,9.1,1.9,12,5.6c3.1,4.1,3.7,9.5,3.5,14.6h-25  c0.2,2.3,1.4,4.5,3.3,5.9c2.7,1.8,6,2.3,9.1,1.2c2-0.8,3.9-2.2,5.2-3.9l6,4.5c-1.9,2.5-4.5,4.4-7.4,5.5c-6.5,2.3-14.4,1.1-19.4-3.8  C763.5,207.1,762.9,197.1,767.6,190.4L767.6,190.4z M777.8,190.1c-3,1.1-4.6,4.1-5.1,7.1h16.7c0.1-2.5-1.2-5-3.3-6.4  C783.6,189.4,780.6,189.1,777.8,190.1L777.8,190.1z M723.2,184.1h8.4V217h-8.4V184.1L723.2,184.1z M260.7,239.4  c3.1-3.6,7.6-5.7,12.4-5.8c4.6-0.4,9.6,1.1,12.5,4.8c-1.9,1.5-3.7,3.1-5.6,4.6c-2.9-3.6-8.8-3.5-12-0.5c-5,4.4-4.6,13.4,0.9,17.2  c3.6,2.5,9.1,1.7,11.5-2.1l6,4.5c-2.6,3.5-6.7,5.6-11,5.7c-4.6,0.3-9.2-1.1-12.8-4c-3.7-3.3-5.7-8-5.5-12.8  C256.8,246.7,258.1,242.6,260.7,239.4L260.7,239.4z M225.2,234.4h7.2v20c0,2.2,1.1,4.4,2.9,5.7c2.5,1.7,5.9,1.3,8.1-0.8  c1.4-1.4,2.1-3.3,2-5.3v-19.5c2.4-0.1,4.8,0,7.3,0v19.9c0.1,2.9-0.7,5.8-2.2,8.2c-2.1,2.9-5.3,4.8-8.9,5.1c-4,0.5-8.4,0-11.7-2.5  c-3-2.4-4.7-6.1-4.7-10L225.2,234.4L225.2,234.4z M289.6,234.4h7.2v25.9h13.3v6.7h-20.5V234.4z M313.6,247.7  c2.8-2.5,6.5-3.8,10.2-3.6c2.2-0.1,4.5,0.4,6.4,1.6c1.7,1.3,2.9,3.2,3.2,5.3c0.4,2.6,0.5,5.2,0.4,7.9v8.2h-6.4v-2.7  c-1.8,2.6-5.1,3.5-8.1,3.2c-2.2-0.1-4.2-1.1-5.6-2.7c-2.4-3-1.9-7.3,1.1-9.7c0.8-0.6,1.6-1,2.6-1.3c3.3-0.9,6.7-1.3,10.1-1.1  c-0.1-1.6-1.1-3-2.6-3.6c-2.7-1-5.6,0.3-7.5,2.4C316.1,250.2,315,248.9,313.6,247.7L313.6,247.7z M320,258.4c-1,0.6-1.4,2-0.7,3  c0.1,0.2,0.3,0.4,0.5,0.6c1.9,1.3,4.5,0.7,6.2-0.6c1.3-1,1.4-2.7,1.3-4.2C324.9,257.2,322.2,257,320,258.4z M345.1,247.5  c1.4-2.1,3.6-3.4,6.1-3.4c2.2-0.1,4.6,0.2,6.2,1.8c2.6,2.5,2.5,6.5,2.5,9.9V267h-7v-11.6c-0.1-1.6-0.1-3.6-1.5-4.7  c-1.4-0.8-3.1-0.8-4.4,0.1s-1.6,2.7-1.6,4.2v12h-7v-22.5h6.8C345.2,245.5,345.2,246.5,345.1,247.5z"/>
<path class="st3" d="M99.2,122.3"/>
<path class="st3" d="M102,123.5"/>
</svg>